<svg width="512" height="512" viewBox="0 0 512 512" fill="none" xmlns="http://www.w3.org/2000/svg">
<g clip-path="url(#clip0_322_10)">
<path d="M255 0C258.503 1.50019 260.76 3.5116 263.443 6.19729C264.777 7.52521 264.777 7.52521 266.138 8.87996C267.121 9.86834 268.103 10.8568 269.086 11.8454C270.132 12.8911 271.18 13.9364 272.227 14.9813C275.107 17.8569 277.981 20.7387 280.854 23.6215C283.952 26.728 287.055 29.8288 290.158 32.9303C295.535 38.3056 300.907 43.6846 306.277 49.066C314.042 56.8467 321.812 64.6219 329.583 72.3958C342.191 85.008 354.794 97.6247 367.395 110.244C379.636 122.504 391.88 134.762 404.126 147.017C404.881 147.772 405.636 148.527 406.413 149.305C410.199 153.094 413.985 156.882 417.771 160.67C449.187 192.107 480.596 223.551 512 255C510.5 258.503 508.488 260.76 505.803 263.443C504.917 264.333 504.032 265.222 503.12 266.138C502.132 267.121 501.143 268.103 500.155 269.086C499.109 270.132 498.064 271.18 497.019 272.227C494.143 275.107 491.261 277.981 488.378 280.854C485.272 283.952 482.171 287.055 479.07 290.158C473.694 295.535 468.315 300.907 462.934 306.277C455.153 314.042 447.378 321.812 439.604 329.583C426.992 342.191 414.375 354.794 401.756 367.395C389.496 379.636 377.238 391.88 364.983 404.126C364.228 404.881 363.473 405.636 362.695 406.413C358.906 410.199 355.118 413.985 351.33 417.771C319.893 449.187 288.449 480.596 257 512C253.497 510.5 251.24 508.488 248.557 505.803C247.667 504.917 246.778 504.032 245.862 503.12C244.879 502.132 243.897 501.143 242.914 500.155C241.868 499.109 240.82 498.064 239.773 497.019C236.893 494.143 234.019 491.261 231.146 488.378C228.048 485.272 224.945 482.171 221.842 479.07C216.465 473.694 211.093 468.315 205.723 462.934C197.958 455.153 190.188 447.378 182.417 439.604C169.809 426.992 157.206 414.375 144.605 401.756C132.364 389.496 120.12 377.238 107.874 364.983C107.119 364.228 106.364 363.473 105.587 362.695C101.801 358.906 98.0149 355.118 94.229 351.33C62.8129 319.893 31.4041 288.449 0 257C1.50019 253.497 3.5116 251.24 6.1973 248.557C7.52522 247.223 7.52521 247.223 8.87996 245.862C9.86834 244.879 10.8568 243.897 11.8454 242.914C12.8911 241.868 13.9364 240.82 14.9813 239.773C17.8569 236.893 20.7387 234.019 23.6215 231.146C26.728 228.048 29.8288 224.945 32.9303 221.842C38.3056 216.465 43.6846 211.093 49.066 205.723C56.8467 197.958 64.6219 190.188 72.3958 182.417C85.008 169.809 97.6247 157.206 110.244 144.605C122.504 132.364 134.762 120.12 147.017 107.874C147.772 107.119 148.527 106.364 149.305 105.587C153.094 101.801 156.882 98.0149 160.67 94.229C192.107 62.8129 223.551 31.4041 255 0ZM253.241 45.5186C252.182 46.5844 252.182 46.5844 251.101 47.6719C250.3 48.4727 249.5 49.2735 248.675 50.0986C247.81 50.9736 246.946 51.8485 246.055 52.75C245.17 53.6378 244.285 54.5257 243.373 55.4404C241.018 57.8042 238.668 60.1723 236.32 62.5425C233.924 64.959 231.522 67.3699 229.121 69.7812C224.409 74.5156 219.702 79.2557 215 84C216.636 88.159 219.669 90.9416 222.783 94.0237C223.381 94.6234 223.979 95.223 224.595 95.8408C226.602 97.8508 228.616 99.8536 230.629 101.856C232.069 103.295 233.507 104.734 234.945 106.173C238.854 110.083 242.769 113.985 246.684 117.887C250.775 121.965 254.859 126.048 258.944 130.131C266.682 137.863 274.425 145.589 282.17 153.314C290.986 162.108 299.797 170.908 308.607 179.708C326.732 197.812 344.864 215.908 363 234C364.122 233.043 365.243 232.086 366.364 231.128C367.301 230.329 367.301 230.329 368.257 229.513C370.252 227.782 372.144 225.977 374.008 224.106C375.058 223.056 375.058 223.056 376.129 221.984C376.859 221.249 377.588 220.515 378.34 219.758C379.107 218.989 379.874 218.221 380.664 217.429C383.091 214.997 385.514 212.561 387.938 210.125C389.592 208.466 391.246 206.807 392.9 205.148C396.936 201.102 400.969 197.052 405 193C401.145 188.393 397.154 184.008 392.901 179.767C392.026 178.889 392.026 178.889 391.133 177.992C389.196 176.049 387.256 174.11 385.315 172.17C383.919 170.77 382.522 169.37 381.126 167.97C377.347 164.183 373.566 160.399 369.784 156.616C367.421 154.253 365.06 151.89 362.699 149.526C354.464 141.282 346.228 133.042 337.988 124.803C330.3 117.116 322.618 109.423 314.938 101.727C308.345 95.1205 301.747 88.5178 295.147 81.918C291.204 77.9756 287.263 74.0317 283.326 70.0839C279.63 66.3785 275.93 62.6779 272.225 58.981C270.864 57.6201 269.503 56.2575 268.145 54.8931C266.298 53.0387 264.445 51.1905 262.591 49.3438C262.048 48.796 261.506 48.2483 260.947 47.6839C257.431 43.6951 257.431 43.6951 253.241 45.5186ZM187.997 110.874C187.424 111.449 186.851 112.025 186.261 112.619C185.656 113.223 185.051 113.827 184.427 114.45C182.383 116.493 180.342 118.539 178.301 120.586C176.842 122.044 175.384 123.502 173.926 124.96C169.953 128.933 165.983 132.909 162.013 136.886C157.87 141.035 153.723 145.182 149.577 149.33C141.72 157.19 133.865 165.053 126.011 172.917C117.073 181.866 108.131 190.813 99.1895 199.76C80.7899 218.17 62.3938 236.584 44 255C45.5405 258.236 47.1624 260.406 49.7153 262.942C50.8563 264.083 50.8563 264.083 52.0203 265.247C52.8412 266.057 53.6621 266.868 54.5078 267.703C55.7687 268.96 55.7687 268.96 57.0551 270.242C59.7404 272.916 62.4326 275.583 65.125 278.25C66.9471 280.062 68.7687 281.875 70.5898 283.688C75.0547 288.13 79.5252 292.567 84 297C88.159 295.364 90.9416 292.331 94.0237 289.217C94.6234 288.619 95.223 288.021 95.8408 287.405C97.8508 285.398 99.8536 283.384 101.856 281.371C103.295 279.931 104.734 278.493 106.173 277.055C110.083 273.146 113.985 269.231 117.887 265.316C121.965 261.225 126.048 257.141 130.131 253.056C137.863 245.318 145.589 237.575 153.314 229.83C162.108 221.014 170.908 212.203 179.708 203.393C197.812 185.268 215.908 167.136 234 149C233.043 147.878 232.086 146.757 231.128 145.636C230.595 145.011 230.061 144.387 229.512 143.743C227.784 141.751 225.985 139.858 224.122 137.992C223.425 137.292 222.728 136.592 222.01 135.871C221.278 135.141 220.547 134.412 219.793 133.66C218.644 132.51 218.644 132.51 217.472 131.336C215.865 129.729 214.258 128.123 212.649 126.518C210.174 124.049 207.705 121.575 205.236 119.1C203.672 117.536 202.108 115.973 200.543 114.41C199.801 113.667 199.06 112.923 198.296 112.157C197.614 111.479 196.933 110.8 196.231 110.102C195.329 109.201 195.329 109.201 194.409 108.282C191.478 105.615 190.343 108.537 187.997 110.874ZM253.442 172.312C252.824 172.931 252.207 173.551 251.571 174.189C250.861 174.896 250.151 175.603 249.42 176.331C248.642 177.116 247.864 177.902 247.062 178.711C246.242 179.53 245.423 180.35 244.578 181.194C241.857 183.916 239.144 186.645 236.43 189.375C234.55 191.259 232.669 193.142 230.788 195.025C226.336 199.483 221.889 203.947 217.444 208.412C212.384 213.495 207.318 218.571 202.252 223.648C191.828 234.092 181.412 244.544 171 255C172.378 258.096 173.959 260.207 176.354 262.594C177.393 263.637 177.393 263.637 178.453 264.702C179.212 265.454 179.972 266.206 180.754 266.981C181.955 268.182 181.955 268.182 183.179 269.407C185.825 272.052 188.479 274.69 191.133 277.328C192.969 279.16 194.804 280.993 196.64 282.826C200.978 287.158 205.321 291.485 209.665 295.809C214.612 300.734 219.554 305.665 224.495 310.595C234.657 320.737 244.826 330.871 255 341C258.096 339.622 260.207 338.041 262.594 335.646C263.29 334.954 263.985 334.261 264.702 333.547C265.454 332.788 266.206 332.028 266.981 331.246C267.782 330.446 268.582 329.645 269.407 328.821C272.052 326.175 274.69 323.521 277.328 320.867C279.16 319.031 280.993 317.196 282.826 315.36C287.158 311.022 291.485 306.679 295.809 302.335C300.734 297.388 305.665 292.446 310.595 287.505C320.737 277.343 330.871 267.174 341 257C339.623 253.911 338.045 251.794 335.66 249.406C334.625 248.363 334.625 248.363 333.57 247.298C332.813 246.546 332.057 245.794 331.277 245.019C330.48 244.218 329.684 243.418 328.863 242.593C326.226 239.948 323.582 237.31 320.938 234.672C319.106 232.839 317.276 231.007 315.445 229.174C311.608 225.334 307.768 221.498 303.925 217.664C299.478 213.228 295.038 208.785 290.602 204.338C286.336 200.062 282.065 195.791 277.791 191.523C275.971 189.705 274.153 187.885 272.336 186.064C269.803 183.526 267.264 180.994 264.723 178.464C263.588 177.323 263.588 177.323 262.43 176.159C261.741 175.475 261.051 174.791 260.34 174.086C259.74 173.487 259.14 172.887 258.521 172.269C256.386 170.487 255.564 170.525 253.442 172.312ZM421.868 218.874C421.298 219.449 420.728 220.025 420.141 220.619C419.232 221.525 419.232 221.525 418.304 222.45C416.26 224.491 414.224 226.538 412.187 228.586C410.729 230.044 409.271 231.503 407.812 232.96C403.841 236.931 399.876 240.908 395.912 244.886C391.773 249.037 387.628 253.183 383.484 257.33C375.632 265.188 367.785 273.051 359.939 280.917C351.01 289.868 342.075 298.815 333.139 307.76C314.753 326.167 296.374 344.581 278 363C278.957 364.122 279.914 365.243 280.872 366.364C281.405 366.989 281.938 367.613 282.487 368.257C284.218 370.252 286.023 372.144 287.894 374.008C288.944 375.058 288.944 375.058 290.016 376.129C290.751 376.859 291.485 377.588 292.242 378.34C293.011 379.107 293.779 379.874 294.571 380.664C297.003 383.091 299.439 385.514 301.875 387.938C303.534 389.592 305.193 391.246 306.852 392.9C310.898 396.936 314.948 400.969 319 405C323.61 401.143 327.995 397.149 332.233 392.888C333.111 392.01 333.111 392.01 334.008 391.115C335.951 389.174 337.89 387.229 339.83 385.284C341.23 383.884 342.63 382.484 344.03 381.084C347.817 377.298 351.601 373.508 355.384 369.718C359.343 365.752 363.305 361.789 367.267 357.826C374.763 350.327 382.256 342.826 389.748 335.324C398.281 326.78 406.816 318.239 415.352 309.698C432.904 292.135 450.453 274.569 468 257C466.465 253.778 464.847 251.595 462.316 249.058C461.562 248.297 460.808 247.537 460.031 246.753C459.216 245.943 458.402 245.132 457.562 244.297C456.727 243.459 455.891 242.621 455.03 241.758C453.263 239.991 451.495 238.226 449.724 236.463C447.004 233.754 444.294 231.034 441.586 228.312C439.87 226.598 438.154 224.885 436.438 223.172C435.623 222.353 434.808 221.535 433.969 220.691C433.215 219.943 432.461 219.195 431.684 218.425C431.019 217.762 430.354 217.099 429.67 216.416C426.155 213.436 424.634 216.129 421.868 218.874ZM146.323 279.557C145.234 280.649 145.234 280.649 144.123 281.764C142.892 282.995 142.892 282.995 141.636 284.251C140.744 285.148 139.852 286.045 138.934 286.969C137.571 288.334 137.571 288.334 136.18 289.726C133.76 292.151 131.342 294.578 128.925 297.006C126.46 299.481 123.993 301.953 121.525 304.426C116.681 309.281 111.839 314.14 107 319C110.857 323.61 114.851 327.995 119.112 332.233C119.99 333.111 119.99 333.111 120.885 334.008C122.826 335.951 124.771 337.89 126.716 339.83C128.116 341.23 129.516 342.63 130.916 344.03C134.702 347.817 138.492 351.601 142.282 355.384C146.248 359.343 150.211 363.305 154.174 367.267C161.673 374.763 169.174 382.256 176.676 389.748C185.22 398.281 193.761 406.816 202.302 415.352C219.865 432.904 237.431 450.453 255 468C258.236 466.46 260.406 464.838 262.942 462.285C263.703 461.524 264.463 460.763 265.247 459.98C266.463 458.748 266.463 458.748 267.703 457.492C268.541 456.652 269.379 455.811 270.242 454.945C272.916 452.26 275.583 449.567 278.25 446.875C280.062 445.053 281.875 443.231 283.688 441.41C288.13 436.945 292.567 432.475 297 428C295.364 423.843 292.335 421.059 289.224 417.976C288.328 417.077 288.328 417.077 287.414 416.159C285.409 414.149 283.398 412.146 281.386 410.144C279.949 408.705 278.512 407.266 277.075 405.827C273.171 401.917 269.26 398.014 265.349 394.113C261.262 390.035 257.18 385.952 253.098 381.869C246.244 375.016 239.386 368.167 232.526 361.32C224.583 353.393 216.645 345.46 208.709 337.524C201.087 329.901 193.462 322.281 185.836 314.663C182.584 311.415 179.333 308.166 176.083 304.916C172.262 301.096 168.437 297.278 164.611 293.461C163.203 292.056 161.796 290.65 160.389 289.243C158.478 287.332 156.564 285.423 154.65 283.516C154.086 282.95 153.522 282.385 152.941 281.803C149.88 277.899 149.88 277.899 146.323 279.557Z" fill="#3E3128"/>
</g>
<defs>
<clipPath id="clip0_322_10">
<rect width="512" height="512" fill="white"/>
</clipPath>
</defs>
</svg>
