<svg width="512" height="512" viewBox="0 0 512 512" fill="none" xmlns="http://www.w3.org/2000/svg">
<g clip-path="url(#clip0_322_14)">
<path d="M222 5.12898e-05C224.717 1.92035 224.717 1.92035 227.532 4.6691C228.316 5.4229 228.316 5.4229 229.115 6.19193C230.862 7.8793 232.586 9.58753 234.311 11.2967C235.559 12.5116 236.807 13.7254 238.057 14.938C241.448 18.2374 244.819 21.5569 248.183 24.8833C250.286 26.9623 252.393 29.0381 254.5 31.113C261.095 37.6097 267.676 44.1195 274.241 50.6472C281.813 58.1766 289.427 65.6596 297.081 73.1056C302.999 78.8675 308.875 84.6692 314.722 90.5024C318.214 93.984 321.721 97.4464 325.272 100.868C328.614 104.09 331.902 107.36 335.156 110.671C336.355 111.874 337.572 113.059 338.808 114.224C347.882 122.806 347.882 122.806 348.08 128.157C347.496 133.371 345.817 138.104 344 143C343.549 144.677 343.113 146.359 342.72 148.051C342.362 149.401 342.003 150.749 341.641 152.098C341.447 152.828 341.252 153.559 341.052 154.312C340.454 156.563 339.852 158.813 339.25 161.063C338.834 162.623 338.419 164.184 338.004 165.744C337.005 169.497 336.003 173.249 335 177C335.605 176.833 336.21 176.665 336.833 176.493C343.123 174.757 349.417 173.041 355.715 171.336C358.066 170.697 360.415 170.053 362.763 169.403C366.135 168.472 369.512 167.558 372.891 166.648C374.467 166.206 374.467 166.206 376.076 165.756C377.057 165.495 378.037 165.235 379.048 164.966C380.34 164.613 380.34 164.613 381.659 164.253C384.6 163.935 385.477 164.47 388 166C389.778 167.576 391.504 169.212 393.195 170.881C393.706 171.382 394.216 171.883 394.742 172.399C396.451 174.078 398.152 175.765 399.853 177.451C401.076 178.657 402.3 179.863 403.524 181.068C407.541 185.027 411.547 188.997 415.551 192.969C416.232 193.644 416.914 194.32 417.616 195.016C424.044 201.388 430.468 207.764 436.883 214.149C445.087 222.315 453.309 230.461 461.557 238.583C467.356 244.296 473.134 250.03 478.897 255.78C482.339 259.214 485.79 262.638 489.264 266.04C492.531 269.24 495.771 272.465 498.992 275.712C500.178 276.898 501.373 278.074 502.578 279.24C511.618 288.004 511.618 288.004 512.523 292.736C512.311 295.336 511.802 297.523 511 300C510.734 301.242 510.467 302.484 510.193 303.764C509.87 304.951 509.548 306.138 509.216 307.361C509.036 308.033 508.856 308.704 508.671 309.395C508.076 311.609 507.47 313.82 506.863 316.031C506.431 317.632 505.999 319.234 505.568 320.835C504.401 325.16 503.225 329.481 502.047 333.802C500.813 338.334 499.587 342.867 498.36 347.401C497.856 349.263 497.352 351.125 496.848 352.988C496.596 353.92 496.343 354.853 496.083 355.813C495.306 358.682 494.528 361.551 493.75 364.42C490.297 377.154 486.893 389.899 483.519 402.654C482.014 408.339 480.504 414.023 478.995 419.707C477.783 424.272 476.575 428.837 475.375 433.404C474.247 437.694 473.11 441.981 471.966 446.266C471.548 447.841 471.133 449.417 470.722 450.993C470.161 453.143 469.588 455.288 469.011 457.433C468.534 459.238 468.534 459.237 468.048 461.078C466.989 464.031 466.342 465.04 464 467C461.145 467.964 458.362 468.784 455.451 469.534C454.132 469.886 454.132 469.886 452.787 470.246C449.85 471.029 446.909 471.798 443.969 472.566C441.889 473.118 439.81 473.671 437.73 474.224C432.145 475.708 426.557 477.18 420.969 478.649C415.203 480.167 409.439 481.696 403.676 483.224C396.736 485.063 389.797 486.902 382.856 488.736C369.091 492.375 355.337 496.055 341.598 499.789C340.006 500.221 338.415 500.653 336.823 501.084C328.073 503.459 328.073 503.459 319.326 505.848C316.666 506.577 314.006 507.302 311.344 508.023C309 508.658 306.657 509.298 304.316 509.945C303.297 510.219 302.278 510.494 301.229 510.776C300.356 511.015 299.484 511.253 298.585 511.498C295.519 512.093 293.125 512.317 290 512C287.283 510.08 287.283 510.08 284.468 507.331C283.946 506.828 283.423 506.326 282.885 505.808C281.138 504.121 279.414 502.413 277.689 500.703C276.441 499.488 275.193 498.275 273.943 497.062C270.552 493.763 267.181 490.443 263.817 487.117C261.714 485.038 259.607 482.962 257.5 480.887C250.905 474.39 244.324 467.881 237.759 461.353C230.187 453.824 222.573 446.341 214.919 438.895C209.001 433.133 203.125 427.331 197.278 421.498C193.786 418.016 190.279 414.554 186.728 411.132C183.386 407.91 180.098 404.641 176.844 401.329C175.645 400.126 174.428 398.941 173.192 397.776C164.118 389.194 164.118 389.194 163.92 383.843C164.504 378.63 166.183 373.896 168 369C168.451 367.323 168.887 365.641 169.28 363.949C169.638 362.6 169.997 361.251 170.359 359.902C170.553 359.172 170.748 358.441 170.948 357.688C171.546 355.438 172.148 353.188 172.75 350.938C173.166 349.377 173.581 347.817 173.996 346.256C174.995 342.503 175.997 338.751 177 335C176.395 335.167 175.79 335.335 175.167 335.507C168.877 337.243 162.583 338.96 156.285 340.664C153.934 341.303 151.585 341.947 149.237 342.597C145.865 343.529 142.488 344.442 139.109 345.352C138.058 345.646 137.007 345.941 135.924 346.245C134.943 346.505 133.963 346.765 132.952 347.034C132.091 347.269 131.229 347.505 130.341 347.747C127.4 348.065 126.523 347.53 124 346C122.222 344.424 120.496 342.788 118.805 341.119C118.039 340.368 118.039 340.368 117.258 339.601C115.549 337.922 113.848 336.235 112.147 334.549C110.924 333.343 109.7 332.137 108.476 330.932C104.459 326.973 100.453 323.003 96.4492 319.031C95.7676 318.356 95.086 317.68 94.3838 316.984C87.9559 310.612 81.5316 304.236 75.1169 297.851C66.913 289.685 58.6912 281.539 50.4435 273.418C44.6442 267.704 38.8661 261.97 33.1033 256.22C29.6611 252.786 26.2101 249.362 22.7363 245.961C19.4691 242.76 16.2289 239.535 13.0075 236.288C11.8218 235.102 10.6266 233.926 9.42151 232.76C0.381527 223.996 0.381525 223.996 -0.522949 219.264C-0.310603 216.664 0.198304 214.477 1 212C1.26645 210.758 1.5329 209.516 1.80742 208.236C2.12967 207.049 2.45192 205.862 2.78394 204.639C2.96377 203.968 3.14359 203.296 3.32887 202.605C3.92408 200.391 4.53039 198.18 5.13672 195.969C5.56936 194.368 6.00126 192.766 6.4325 191.165C7.59895 186.841 8.77493 182.519 9.95294 178.198C11.1869 173.666 12.4132 169.133 13.6399 164.599C14.1439 162.737 14.6479 160.875 15.1519 159.012C15.4043 158.08 15.6566 157.148 15.9166 156.187C16.6935 153.318 17.4717 150.449 18.25 147.58C21.7026 134.846 25.1075 122.101 28.4812 109.346C29.9859 103.661 31.4959 97.9771 33.0055 92.2929C34.2171 87.7285 35.4251 83.1632 36.6253 78.5958C37.7528 74.3061 38.8897 70.0191 40.0338 65.7339C40.4523 64.1592 40.8672 62.5836 41.2783 61.007C41.8391 58.8576 42.4125 56.7119 42.989 54.5667C43.3068 53.364 43.6246 52.1612 43.9521 50.9221C45.0125 47.9653 45.6503 46.9574 48 45C49.833 44.2411 49.833 44.2411 51.923 43.6907C52.7195 43.4756 53.5159 43.2605 54.3365 43.0388C55.2087 42.8145 56.0809 42.5901 56.9795 42.3589C57.904 42.1124 58.8285 41.8659 59.7811 41.6119C62.8672 40.7915 65.9569 39.9857 69.0469 39.1797C71.2275 38.6029 73.4079 38.025 75.588 37.4463C81.4317 35.8976 87.2785 34.3612 93.1259 32.8271C99.1441 31.2461 105.16 29.6547 111.175 28.0635C113.578 27.428 115.981 26.7925 118.384 26.157C119.569 25.8434 120.755 25.5298 121.977 25.2067C125.567 24.2576 129.158 23.31 132.75 22.3626C146.44 18.7493 160.118 15.0952 173.777 11.3672C175.285 10.9564 176.793 10.5455 178.301 10.1347C183.74 8.65157 189.178 7.16749 194.613 5.66747C198.182 4.68352 201.753 3.7082 205.324 2.73443C206.845 2.30999 206.845 2.30999 208.396 1.87697C209.322 1.62594 210.248 1.3749 211.202 1.11626C211.991 0.898713 212.78 0.681163 213.593 0.457022C216.586 -0.111296 218.949 -0.305882 222 5.12898e-05ZM203.156 35.7815C202.435 35.9723 201.714 36.1631 200.972 36.3596C198.553 37.0003 196.134 37.6427 193.715 38.2852C192.006 38.7381 190.298 39.1909 188.589 39.6437C183.99 40.8626 179.392 42.0833 174.794 43.3043C171.95 44.0591 169.107 44.8135 166.264 45.5677C134.495 53.9943 102.74 62.4677 71 71.0001C70.7577 71.9155 70.5154 72.831 70.2657 73.7742C69.9167 75.093 69.5676 76.4118 69.2185 77.7305C69.0278 78.4512 68.837 79.1718 68.6405 79.9143C67.5461 84.0486 66.4512 88.1827 65.3555 92.3166C63.1279 100.723 60.9023 109.129 58.688 117.538C57.4334 122.302 56.1764 127.065 54.918 131.828C54.5419 133.252 54.5419 133.252 54.1582 134.704C51.0641 146.399 47.8926 158.066 44.5687 169.698C43.2878 174.192 42.0289 178.692 40.7642 183.19C40.0905 185.555 39.4036 187.916 38.7033 190.273C37.7441 193.502 36.8287 196.74 35.9219 199.984C35.488 201.372 35.488 201.372 35.0454 202.789C34.8148 203.644 34.5842 204.5 34.3467 205.382C34.1332 206.111 33.9198 206.84 33.6999 207.591C34.21 211.686 37.2412 214.144 40 217C40.6798 217.715 41.3596 218.43 42.0599 219.167C44.4673 221.675 46.8983 224.159 49.335 226.639C50.2561 227.58 51.1773 228.52 52.1263 229.489C60.5631 238.098 69.0392 246.669 77.5252 255.229C83.2209 260.976 88.9044 266.733 94.5596 272.52C99.5091 277.584 104.479 282.628 109.476 287.646C112.115 290.298 114.744 292.959 117.347 295.647C120.248 298.64 123.195 301.584 126.147 304.526C127 305.42 127.852 306.313 128.73 307.234C132.996 311.616 132.996 311.616 138.665 313.102C141.231 312.603 143.541 311.877 146 311C147.596 310.673 149.197 310.368 150.804 310.096C159.924 308.351 168.952 306.305 177.855 303.656C178.698 303.432 179.54 303.209 180.408 302.978C185.209 301.462 187.532 299.872 190.071 295.454C191.676 291.995 192.626 289.123 192.574 285.27C192.857 278.172 194.822 271.683 196.789 264.913C197.725 261.659 198.595 258.39 199.461 255.117C199.758 254.01 200.055 252.902 200.361 251.761C201.113 248.985 201.113 248.985 201 246C194.519 247.156 188.201 248.7 181.852 250.418C181.027 250.64 180.202 250.863 179.352 251.092C175.896 252.026 172.44 252.963 168.988 253.913C166.445 254.611 163.898 255.297 161.352 255.981C160.572 256.198 159.793 256.416 158.99 256.64C152.388 258.397 152.388 258.397 149 257C146.89 255.27 144.938 253.533 142.975 251.648C142.086 250.811 142.086 250.811 141.18 249.957C135.004 244.113 128.92 238.171 122.844 232.224C119.96 229.407 117.051 226.623 114.113 223.862C110.56 220.523 107.062 217.134 103.596 213.705C102.271 212.411 100.927 211.135 99.5666 209.879C89.3324 200.392 89.3324 200.392 88.8006 194.966C89.1621 190.444 90.6118 186.334 92.2211 182.12C93.4423 178.796 94.2488 175.384 95.1064 171.951C95.4667 170.603 95.8305 169.256 96.1976 167.91C96.975 165.052 97.7501 162.194 98.5217 159.335C99.7614 154.743 101.005 150.153 102.25 145.563C103.708 140.184 105.164 134.804 106.616 129.424C107.195 127.284 107.777 125.145 108.358 123.006C108.709 121.706 109.06 120.407 109.411 119.108C109.719 117.973 110.027 116.839 110.344 115.67C111.08 113.135 111.08 113.135 111 111C112.04 110.762 113.079 110.525 114.15 110.28C123.522 108.117 132.817 105.76 142.083 103.182C144.999 102.373 147.918 101.575 150.837 100.776C156.23 99.2998 161.621 97.819 167.007 96.3199C170.796 95.2655 174.59 94.225 178.386 93.1938C179.822 92.8011 181.256 92.4031 182.689 91.9999C184.677 91.4406 186.67 90.8993 188.665 90.3619C189.795 90.0497 190.925 89.7376 192.09 89.416C195.436 88.9378 196.299 89.0465 199 91.0001C201.028 92.7844 202.971 94.5851 204.902 96.4686C205.481 97.0266 206.06 97.5847 206.657 98.1597C212.685 103.983 218.655 109.866 224.619 115.754C227.45 118.545 230.298 121.316 233.163 124.073C236.627 127.405 240.057 130.768 243.467 134.156C244.769 135.439 246.083 136.711 247.407 137.972C257.611 147.706 257.611 147.706 258.469 152.761C257.989 155.715 257.087 158.213 256 161C255.369 163.407 254.759 165.82 254.166 168.237C253.426 171.029 252.664 173.815 251.906 176.602C251.487 178.159 251.068 179.716 250.649 181.273C249.746 184.628 248.84 187.982 247.931 191.336C246.476 196.71 245.027 202.085 243.579 207.461C242.032 213.203 240.485 218.946 238.935 224.688C234.966 239.401 231.015 254.119 227.074 268.84C226.786 269.915 226.499 270.99 226.202 272.097C223.92 280.619 221.639 289.141 219.358 297.664C217.759 303.634 216.16 309.605 214.561 315.575C213.804 318.402 213.048 321.229 212.293 324.056C209.973 332.724 207.626 341.383 205.206 350.023C204.772 351.578 204.339 353.134 203.906 354.689C203.112 357.539 202.305 360.386 201.491 363.23C201.145 364.47 200.799 365.71 200.443 366.988C200.138 368.06 199.833 369.133 199.519 370.238C198.973 373.146 198.995 374.271 200 377C201.671 379.173 201.671 379.173 203.84 381.342C204.667 382.203 205.493 383.065 206.345 383.952C207.259 384.888 208.173 385.824 209.115 386.789C210.083 387.791 211.051 388.793 212.018 389.796C215.197 393.084 218.394 396.356 221.594 399.625C222.139 400.182 222.684 400.739 223.245 401.312C228.389 406.566 233.541 411.811 238.708 417.042C245.308 423.725 251.871 430.44 258.388 437.204C262.978 441.962 267.608 446.678 272.269 451.367C275.05 454.166 277.81 456.98 280.528 459.84C290.575 471.396 290.575 471.396 303.41 478.573C308.091 478.591 311.902 476.992 316.033 474.922C319.213 473.432 322.543 472.726 325.945 471.916C327.284 471.559 328.621 471.197 329.957 470.83C330.634 470.645 331.312 470.46 332.01 470.269C332.708 470.079 333.406 469.888 334.125 469.691C335.628 469.283 337.131 468.876 338.634 468.468C341.796 467.611 344.958 466.751 348.12 465.891C355.54 463.871 362.962 461.86 370.385 459.849C372.039 459.4 373.694 458.952 375.349 458.503C390.595 454.371 405.854 450.29 421.125 446.25C422.167 445.974 423.21 445.698 424.284 445.414C429.855 443.94 435.427 442.469 441 441C441.242 440.085 441.485 439.169 441.734 438.226C442.083 436.907 442.432 435.588 442.781 434.27C443.068 433.189 443.068 433.189 443.359 432.086C444.454 427.952 445.549 423.817 446.644 419.683C448.872 411.278 451.098 402.871 453.312 394.462C454.567 389.698 455.824 384.935 457.082 380.172C457.333 379.223 457.583 378.274 457.842 377.296C460.936 365.601 464.107 353.934 467.431 342.302C468.712 337.808 469.971 333.308 471.236 328.81C471.909 326.445 472.596 324.084 473.297 321.728C474.256 318.498 475.171 315.26 476.078 312.016C476.367 311.09 476.657 310.165 476.955 309.212C477.185 308.356 477.416 307.5 477.653 306.618C477.867 305.889 478.08 305.16 478.3 304.409C477.79 300.317 474.751 297.86 472 295C471.327 294.283 470.654 293.566 469.96 292.827C467.582 290.311 465.182 287.819 462.776 285.329C461.866 284.386 460.956 283.442 460.019 282.469C451.673 273.822 443.264 265.236 434.837 256.667C429.184 250.917 423.552 245.148 417.969 239.329C413.08 234.235 408.154 229.18 403.183 224.166C400.558 221.517 397.954 218.853 395.393 216.142C385.898 205.028 385.898 205.028 373.527 198.52C368.134 198.67 363.798 200.694 359 203C356.29 203.642 356.29 203.642 354.044 203.947C337.305 206.186 337.305 206.186 323.004 213.986C320.244 218.88 319.88 224.163 319.42 229.676C318.668 235.626 316.854 241.337 315.204 247.089C314.278 250.344 313.406 253.612 312.539 256.883C312.242 257.99 311.945 259.098 311.639 260.239C310.887 263.015 310.887 263.015 311 266C317.812 265.001 324.403 263.422 331.027 261.582C331.829 261.36 332.631 261.137 333.457 260.908C336.805 259.975 340.151 259.036 343.494 258.087C345.961 257.39 348.432 256.704 350.902 256.02C352.034 255.693 352.034 255.693 353.188 255.36C359.593 253.599 359.593 253.599 363 255C365.11 256.73 367.062 258.467 369.025 260.352C369.618 260.91 370.21 261.468 370.82 262.043C376.996 267.887 383.08 273.829 389.156 279.776C392.04 282.593 394.949 285.377 397.887 288.138C401.44 291.477 404.938 294.866 408.404 298.295C409.729 299.589 411.073 300.865 412.433 302.121C422.668 311.608 422.668 311.608 423.199 317.034C422.838 321.556 421.388 325.666 419.779 329.88C418.558 333.204 417.751 336.616 416.894 340.049C416.533 341.397 416.17 342.744 415.802 344.09C415.025 346.948 414.25 349.806 413.478 352.665C412.239 357.257 410.995 361.847 409.75 366.438C408.292 371.816 406.836 377.196 405.384 382.576C404.805 384.716 404.223 386.855 403.642 388.994C403.291 390.294 402.94 391.593 402.589 392.892C402.281 394.027 401.973 395.161 401.656 396.33C400.92 398.866 400.92 398.866 401 401C399.441 401.357 399.441 401.357 397.85 401.72C388.478 403.883 379.183 406.24 369.917 408.818C367.001 409.627 364.082 410.425 361.163 411.224C355.77 412.7 350.379 414.181 344.993 415.68C341.204 416.735 337.41 417.775 333.614 418.806C332.178 419.199 330.744 419.597 329.311 420C327.323 420.559 325.33 421.101 323.335 421.638C321.64 422.106 321.64 422.106 319.91 422.584C316.564 423.062 315.701 422.954 313 421C310.972 419.216 309.029 417.415 307.098 415.532C306.519 414.973 305.94 414.415 305.343 413.84C299.315 408.017 293.345 402.134 287.381 396.246C284.55 393.455 281.702 390.684 278.837 387.928C275.373 384.595 271.943 381.232 268.533 377.845C267.231 376.561 265.917 375.289 264.593 374.029C254.389 364.294 254.389 364.294 253.531 359.239C254.011 356.285 254.913 353.788 256 351C256.631 348.593 257.241 346.18 257.834 343.763C258.574 340.972 259.336 338.186 260.094 335.398C260.513 333.842 260.932 332.284 261.351 330.727C262.254 327.372 263.16 324.018 264.069 320.664C265.524 315.29 266.973 309.915 268.421 304.539C269.968 298.797 271.515 293.054 273.065 287.312C277.034 272.599 280.985 257.881 284.926 243.16C285.214 242.085 285.501 241.01 285.798 239.903C288.08 231.381 290.361 222.859 292.642 214.337C294.241 208.366 295.84 202.395 297.439 196.425C298.196 193.598 298.952 190.771 299.707 187.944C302.027 179.276 304.374 170.618 306.794 161.977C307.228 160.422 307.661 158.866 308.094 157.311C308.888 154.461 309.695 151.615 310.509 148.77C311.028 146.91 311.028 146.91 311.557 145.012C311.862 143.94 312.167 142.867 312.481 141.762C313.028 138.853 313.014 137.728 312 135C310.282 132.836 310.282 132.836 308.052 130.685C307.202 129.829 306.353 128.974 305.477 128.093C304.529 127.153 303.58 126.214 302.631 125.274C301.637 124.279 300.643 123.284 299.65 122.288C296.952 119.585 294.245 116.891 291.537 114.2C288.707 111.385 285.885 108.562 283.062 105.739C278.322 101.003 273.577 96.2731 268.828 91.5464C262.723 85.4712 256.629 79.3866 250.537 73.2991C245.307 68.0736 240.073 62.8524 234.839 57.6319C233.152 55.9492 231.466 54.2659 229.78 52.5826C227.136 49.9437 224.49 47.3075 221.841 44.6734C220.867 43.7035 219.893 42.7328 218.921 41.7611C217.599 40.4409 216.273 39.1241 214.948 37.8075C214.205 37.0679 213.463 36.3283 212.698 35.5662C209.746 32.8428 206.746 34.8264 203.156 35.7815ZM180.161 124.193C179.181 124.454 178.2 124.714 177.189 124.982C176.133 125.266 175.077 125.551 173.988 125.844C172.905 126.132 171.822 126.421 170.705 126.718C167.24 127.642 163.776 128.571 160.312 129.5C157.966 130.127 155.619 130.753 153.271 131.379C147.513 132.915 141.756 134.456 136 136C134.117 142.902 132.249 149.807 130.391 156.715C129.757 159.066 129.12 161.415 128.479 163.763C127.559 167.137 126.651 170.513 125.746 173.891C125.457 174.942 125.167 175.993 124.869 177.076C124.608 178.057 124.348 179.037 124.08 180.048C123.847 180.909 123.614 181.771 123.373 182.659C122.964 185.228 123.038 186.593 124 189C125.393 190.885 125.393 190.885 127.199 192.683C127.874 193.387 128.549 194.09 129.244 194.815C129.98 195.563 130.715 196.311 131.473 197.082C132.607 198.242 132.607 198.242 133.765 199.426C135.369 201.058 136.977 202.686 138.59 204.31C141.05 206.8 143.477 209.32 145.904 211.842C147.467 213.424 149.031 215.004 150.598 216.582C151.319 217.34 152.04 218.098 152.783 218.88C157.074 223.159 157.074 223.159 162.922 224.118C164.292 223.787 165.652 223.411 167 223C167.744 222.822 168.487 222.645 169.253 222.462C171.732 221.867 174.186 221.206 176.645 220.531C177.982 220.171 177.982 220.171 179.346 219.803C182.17 219.04 184.991 218.27 187.812 217.5C189.726 216.983 191.639 216.466 193.553 215.949C197.043 215.005 200.534 214.06 204.023 213.107C204.72 212.917 205.418 212.727 206.137 212.531C207.771 212.065 209.388 211.538 211 211C212.094 208.428 212.094 208.428 212.867 205.227C213.193 204.017 213.52 202.808 213.856 201.563C214.196 200.25 214.536 198.938 214.875 197.625C215.226 196.299 215.578 194.974 215.931 193.648C216.634 191.003 217.331 188.356 218.022 185.708C218.876 182.471 219.76 179.246 220.668 176.023C221.133 174.349 221.598 172.675 222.062 171C222.278 170.249 222.494 169.499 222.716 168.725C223.799 164.729 224.185 161.968 223 158C221.595 156.003 221.595 156.003 219.721 154.22C218.685 153.169 218.685 153.169 217.627 152.097C216.876 151.357 216.125 150.618 215.352 149.856C214.199 148.701 214.199 148.701 213.023 147.523C211.399 145.9 209.77 144.282 208.136 142.669C205.629 140.192 203.142 137.696 200.656 135.197C199.077 133.624 197.496 132.052 195.914 130.481C195.167 129.731 194.42 128.981 193.651 128.208C192.953 127.524 192.256 126.839 191.538 126.134C190.926 125.527 190.313 124.92 189.683 124.295C186.638 121.952 183.595 123.276 180.161 124.193ZM344.463 289.086C343.572 289.323 342.681 289.56 341.763 289.804C340.809 290.063 339.854 290.323 338.871 290.59C337.885 290.854 336.899 291.118 335.883 291.39C332.733 292.234 329.585 293.086 326.438 293.938C324.313 294.508 322.189 295.077 320.064 295.647C316.178 296.69 312.292 297.734 308.408 298.785C307.237 299.101 307.237 299.101 306.042 299.424C304.347 299.902 302.671 300.443 301 301C299.906 303.572 299.906 303.572 299.133 306.773C298.807 307.983 298.48 309.192 298.144 310.438C297.804 311.75 297.464 313.062 297.125 314.375C296.774 315.701 296.422 317.026 296.069 318.352C295.366 320.997 294.669 323.644 293.978 326.292C293.124 329.529 292.24 332.754 291.332 335.977C290.867 337.651 290.402 339.326 289.938 341C289.722 341.751 289.506 342.501 289.284 343.275C288.201 347.272 287.821 350.03 289 354C290.378 356.002 290.378 356.002 292.215 357.796C293.232 358.852 293.232 358.852 294.27 359.928C295.378 361.043 295.378 361.043 296.508 362.18C297.267 362.952 298.026 363.724 298.807 364.52C300.414 366.147 302.027 367.769 303.645 369.386C306.116 371.866 308.554 374.377 310.992 376.891C312.558 378.468 314.126 380.044 315.695 381.617C316.422 382.372 317.148 383.127 317.896 383.905C321.931 388.007 321.931 388.007 327.361 389.132C329.162 388.572 329.162 388.572 331 388C332.641 387.591 334.283 387.186 335.926 386.785C337.794 386.287 339.661 385.784 341.527 385.277C342.516 385.012 343.505 384.748 344.524 384.475C347.663 383.633 350.8 382.785 353.938 381.938C356.073 381.364 358.21 380.79 360.346 380.217C365.565 378.816 370.783 377.41 376 376C377.883 369.099 379.751 362.193 381.609 355.285C382.243 352.935 382.88 350.585 383.521 348.237C384.441 344.863 385.349 341.487 386.254 338.109C386.543 337.058 386.833 336.007 387.131 334.924C387.522 333.453 387.522 333.453 387.92 331.952C388.153 331.091 388.386 330.229 388.627 329.341C389.036 326.771 388.967 325.407 388 323C386.579 321.12 386.579 321.12 384.737 319.333C384.049 318.633 383.362 317.932 382.653 317.211C381.531 316.093 381.531 316.093 380.387 314.953C379.621 314.182 378.855 313.411 378.066 312.616C376.444 310.989 374.819 309.365 373.191 307.745C370.695 305.258 368.219 302.753 365.744 300.246C364.168 298.668 362.59 297.091 361.012 295.516C360.27 294.763 359.528 294.01 358.764 293.234C358.067 292.546 357.369 291.858 356.651 291.149C356.041 290.54 355.431 289.93 354.803 289.302C351.518 286.93 348.091 288.11 344.463 289.086Z" fill="#3E3128"/>
</g>
<defs>
<clipPath id="clip0_322_14">
<rect width="512" height="512" fill="white"/>
</clipPath>
</defs>
</svg>
