<svg width="512" height="512" viewBox="0 0 512 512" fill="none" xmlns="http://www.w3.org/2000/svg">
<g clip-path="url(#clip0_322_6)">
<path d="M264.726 1.0111C267.498 2.42239 270.114 3.97411 272.75 5.62511C274.225 6.5032 274.225 6.5032 275.729 7.39904C277.797 8.63144 279.858 9.87429 281.914 11.1271C285.864 13.5242 289.857 15.8426 293.854 18.1595C296.854 19.8992 299.847 21.6497 302.84 23.4025C312.439 29.0169 322.081 34.5581 331.718 40.109C337.147 43.2369 342.573 46.3687 348 49.5001C350.167 50.7501 352.333 52.0001 354.5 53.2501C376.167 65.7501 397.833 78.2501 419.5 90.7501C420.574 91.3695 421.647 91.9889 422.754 92.6271C424.908 93.8702 427.063 95.1137 429.217 96.3575C434.228 99.2499 439.24 102.139 444.259 105.017C446.017 106.026 447.775 107.035 449.533 108.045C451.725 109.304 453.917 110.56 456.111 111.815C459.086 113.524 462.044 115.259 465 117C466.008 117.576 467.016 118.153 468.055 118.746C469.028 119.325 470.001 119.904 471.004 120.5C471.87 121.005 472.735 121.511 473.627 122.031C477.3 125.079 479.605 128.563 480.369 133.278C480.515 135.955 480.533 138.605 480.508 141.286C480.517 142.819 480.517 142.819 480.527 144.383C480.543 147.8 480.53 151.216 480.518 154.633C480.523 157.086 480.53 159.538 480.539 161.991C480.555 167.957 480.553 173.923 480.541 179.888C480.532 184.738 480.531 189.588 480.535 194.437C480.536 195.128 480.537 195.819 480.537 196.531C480.538 197.934 480.54 199.338 480.541 200.742C480.552 213.895 480.539 227.049 480.518 240.203C480.5 251.484 480.503 262.764 480.521 274.045C480.543 287.153 480.551 300.26 480.539 313.368C480.538 314.766 480.536 316.165 480.535 317.563C480.534 318.595 480.534 318.595 480.533 319.648C480.53 324.49 480.536 329.333 480.545 334.175C480.558 340.695 480.549 347.216 480.526 353.736C480.52 356.129 480.522 358.523 480.531 360.916C480.542 364.183 480.528 367.448 480.508 370.714C480.521 372.136 480.521 372.136 480.535 373.586C480.464 379.571 479.485 383.092 476 388C473.68 389.906 473.68 389.906 470.875 391.5C470.331 391.817 469.786 392.133 469.225 392.459C467.931 393.208 466.631 393.949 465.329 394.683C462.633 396.208 459.955 397.761 457.277 399.317C452.261 402.226 447.237 405.121 442.208 408.008C436.134 411.496 430.067 414.998 424 418.5C421.833 419.75 419.667 421 417.5 422.25C416.428 422.869 415.355 423.488 414.25 424.125C326.5 474.75 326.5 474.75 323.248 476.626C321.087 477.873 318.926 479.12 316.765 480.366C311.262 483.542 305.758 486.716 300.254 489.891C299.144 490.531 298.034 491.172 296.891 491.832C294.692 493.099 292.491 494.363 290.289 495.623C285.328 498.467 280.407 501.344 275.566 504.387C274.306 505.164 274.306 505.164 273.019 505.956C271.495 506.9 269.982 507.863 268.487 508.853C262.508 512.512 256.898 513.289 250 512C245.333 510.117 241.136 507.588 236.875 504.938C235.652 504.204 234.426 503.473 233.2 502.745C230.683 501.246 228.175 499.736 225.672 498.215C220.13 494.857 214.498 491.657 208.875 488.438C206.726 487.198 204.578 485.957 202.43 484.715C195.955 480.974 189.478 477.237 183 473.5C180.833 472.25 178.667 471 176.5 469.75C175.428 469.131 174.355 468.513 173.25 467.875C170 466 166.75 464.125 163.5 462.25C162.427 461.631 161.355 461.012 160.25 460.375C158.084 459.126 155.919 457.877 153.754 456.627C148.314 453.488 142.873 450.35 137.43 447.215C126.978 441.193 116.537 435.153 106.125 429.063C97.4474 423.987 88.7335 418.978 80 414C70.88 408.798 61.769 403.582 52.6875 398.313C51.7097 397.749 50.732 397.185 49.7246 396.604C34.6127 387.809 34.6127 387.809 32 381C31.5756 377.609 31.5907 374.249 31.6123 370.835C31.6069 369.814 31.6015 368.793 31.596 367.741C31.5817 364.321 31.5888 360.901 31.5959 357.481C31.5902 355.028 31.5833 352.576 31.5751 350.123C31.5591 344.154 31.5571 338.185 31.5624 332.215C31.5664 327.363 31.565 322.51 31.5596 317.658C31.5589 316.967 31.5581 316.276 31.5573 315.564C31.5558 314.16 31.5543 312.756 31.5527 311.352C31.539 298.192 31.5444 285.031 31.5559 271.871C31.5659 259.835 31.5529 247.8 31.529 235.764C31.5046 223.4 31.495 211.037 31.5016 198.673C31.5051 191.734 31.5029 184.795 31.4854 177.856C31.4691 171.331 31.4738 164.807 31.4927 158.282C31.4964 155.888 31.4932 153.493 31.4828 151.098C31.4696 147.829 31.4811 144.561 31.4988 141.292C31.4892 140.344 31.4796 139.396 31.4697 138.419C31.5364 132.43 32.5126 128.91 36 124C38.3203 122.094 38.3203 122.094 41.125 120.5C41.6694 120.184 42.2138 119.867 42.7747 119.541C44.0691 118.792 45.3685 118.051 46.6714 117.317C49.367 115.793 52.0448 114.239 54.7227 112.684C59.7386 109.774 64.7629 106.88 69.7917 103.992C75.8664 100.504 81.9333 97.0022 88 93.5001C90.1666 92.2501 92.3333 91.0001 94.5 89.7501C95.5725 89.1314 96.645 88.5126 97.75 87.8751C185.5 37.2501 185.5 37.2501 188.752 35.3741C190.913 34.1274 193.074 32.8807 195.235 31.6339C200.738 28.4587 206.242 25.2838 211.746 22.1095C212.856 21.4689 213.966 20.8283 215.109 20.1683C217.308 18.9011 219.509 17.6372 221.711 16.3768C226.672 13.5333 231.593 10.6563 236.434 7.61339C237.694 6.83657 237.694 6.83657 238.981 6.04406C240.505 5.10062 242.018 4.13705 243.513 3.14757C250.176 -0.930433 257.325 -1.73377 264.726 1.0111ZM250.539 35.5001C249.607 36.0493 248.675 36.5984 247.715 37.1642C246.695 37.77 245.676 38.3759 244.625 39.0001C242.43 40.2929 240.235 41.5846 238.039 42.8751C237.466 43.2122 236.893 43.5493 236.303 43.8966C229.902 47.6566 223.452 51.3283 217 55.0001C207.278 60.5386 197.591 66.1339 187.933 71.7836C177.409 77.9378 166.846 84.0238 156.282 90.109C150.853 93.2369 145.427 96.3687 140 99.5001C137.833 100.75 135.667 102 133.5 103.25C132.428 103.869 131.355 104.488 130.25 105.125C120.5 110.75 120.5 110.75 117.247 112.627C115.091 113.871 112.936 115.114 110.781 116.358C105.777 119.245 100.772 122.132 95.7672 125.017C94.0166 126.026 92.2661 127.036 90.5156 128.045C88.3361 129.302 86.1564 130.558 83.9766 131.815C82.0311 132.936 80.0964 134.077 78.1761 135.242C75 137 75 137 71.8423 138.116C68.0684 139.641 65.7866 141.005 63 144C60.6704 150.711 61.4884 158.369 61.6377 165.357C61.6411 167.565 61.6392 169.773 61.6324 171.981C61.6289 177.969 61.6995 183.954 61.7833 189.942C61.8583 196.201 61.8653 202.46 61.8796 208.72C61.9126 219.224 61.9876 229.728 62.0947 240.231C62.205 251.048 62.2899 261.864 62.3408 272.682C62.344 273.349 62.3471 274.016 62.3504 274.703C62.366 278.051 62.3812 281.399 62.3961 284.746C62.5215 312.498 62.7326 340.249 63 368C66.5595 370.055 70.1191 372.109 73.6788 374.163C74.8865 374.86 76.0941 375.557 77.3016 376.254C85.8957 381.215 94.5012 386.154 103.125 391.063C112.805 396.581 122.45 402.158 132.067 407.784C142.591 413.938 153.154 420.024 163.718 426.109C169.147 429.237 174.573 432.369 180 435.5C182.167 436.75 184.333 438 186.5 439.25C193 443 193 443 199.5 446.75C200.574 447.37 201.648 447.989 202.754 448.627C204.908 449.87 207.061 451.113 209.215 452.355C214.237 455.253 219.259 458.15 224.284 461.043C226.05 462.06 227.816 463.077 229.582 464.094C231.787 465.364 233.993 466.634 236.199 467.902C237.206 468.483 238.213 469.063 239.25 469.66C240.698 470.488 240.698 470.488 242.176 471.333C244.076 472.455 245.949 473.624 247.793 474.836C248.666 475.404 249.538 475.973 250.438 476.559C251.199 477.076 251.961 477.594 252.746 478.127C255.006 479.259 255.006 479.259 257.45 478.334C258.712 477.674 258.712 477.674 260 477C260.856 476.553 261.711 476.107 262.593 475.647C263.962 474.878 263.962 474.878 265.359 474.094C266.383 473.52 267.408 472.947 268.463 472.356C269.547 471.743 270.632 471.131 271.75 470.5C272.877 469.866 274.003 469.233 275.164 468.58C281.955 464.75 288.71 460.867 295.415 456.89C301.727 453.147 308.079 449.476 314.438 445.813C315.545 445.175 316.652 444.537 317.793 443.879C320.063 442.571 322.334 441.263 324.605 439.956C330.072 436.807 335.536 433.653 341 430.5C347.522 426.736 354.045 422.974 360.57 419.215C371.022 413.193 381.463 407.153 391.875 401.063C401.801 395.257 411.774 389.537 421.771 383.856C423.921 382.632 426.06 381.387 428.184 380.119C430.834 378.582 433.495 377.348 436.329 376.186C444.537 372.622 444.537 372.622 449.968 365.87C451.53 359.446 451.129 352.86 450.93 346.302C450.925 344.094 450.928 341.886 450.937 339.677C450.942 333.701 450.843 327.73 450.724 321.754C450.617 315.503 450.607 309.252 450.587 303C450.54 292.513 450.434 282.028 450.282 271.543C450.126 260.746 450.006 249.951 449.934 239.154C449.929 238.487 449.925 237.821 449.92 237.134C449.898 233.791 449.877 230.447 449.855 227.103C449.678 199.401 449.379 171.701 449 144C447.921 143.377 447.921 143.377 446.82 142.742C402.046 116.911 357.273 91.0808 312.5 65.2501C311.426 64.6306 310.352 64.0112 309.246 63.3729C307.092 62.1304 304.939 60.8877 302.785 59.6449C297.763 56.747 292.741 53.8501 287.716 50.9574C285.95 49.9406 284.184 48.9236 282.418 47.9064C280.213 46.6361 278.007 45.3665 275.801 44.0978C270.136 40.8337 264.517 37.5158 258.961 34.0687C255.399 32.1275 253.818 33.5546 250.539 35.5001Z" fill="#3E3128"/>
<path d="M264.722 71.013C267.497 72.4217 270.112 73.9732 272.75 75.625C274.225 76.5031 274.225 76.5031 275.729 77.399C277.797 78.6314 279.858 79.8742 281.914 81.127C285.864 83.5241 289.857 85.8425 293.854 88.1595C296.854 89.8991 299.847 91.6496 302.84 93.4024C312.439 99.0168 322.081 104.558 331.718 110.109C337.147 113.237 342.573 116.369 348 119.5C350.167 120.75 352.333 122 354.5 123.25C358.833 125.75 363.167 128.25 367.5 130.75C369.111 131.679 369.111 131.679 370.755 132.627C372.906 133.869 375.057 135.112 377.206 136.357C382.249 139.276 387.3 142.178 392.388 145.017C394.187 146.022 395.982 147.033 397.777 148.045C400.029 149.313 402.286 150.57 404.551 151.814C411.087 155.513 416.538 159.077 420 166C420.103 168.343 420.14 170.689 420.147 173.034C420.151 173.766 420.155 174.499 420.158 175.253C420.169 177.721 420.173 180.188 420.177 182.655C420.183 184.419 420.19 186.183 420.197 187.947C420.214 192.749 420.225 197.551 420.233 202.352C420.238 205.351 420.244 208.35 420.251 211.349C420.27 220.728 420.284 230.107 420.292 239.486C420.302 250.319 420.328 261.152 420.369 271.985C420.399 280.354 420.414 288.722 420.417 297.091C420.419 302.091 420.428 307.091 420.453 312.092C420.477 316.796 420.481 321.501 420.471 326.206C420.47 327.932 420.477 329.658 420.49 331.384C420.508 333.743 420.501 336.1 420.488 338.458C420.49 339.778 420.493 341.097 420.495 342.456C419.768 347.664 417.428 350.715 413.579 354.178C411.025 355.982 408.454 357.595 405.738 359.145C404.715 359.731 403.693 360.318 402.639 360.922C401.541 361.546 400.443 362.17 399.312 362.813C398.15 363.477 396.988 364.143 395.826 364.809C393.415 366.19 391.002 367.57 388.588 368.948C383.048 372.113 377.525 375.308 372 378.5C369.833 379.75 367.667 381 365.5 382.25C364.428 382.869 363.355 383.488 362.25 384.125C326.5 404.75 326.5 404.75 323.248 406.626C321.087 407.873 318.926 409.119 316.765 410.366C311.262 413.541 305.758 416.716 300.254 419.891C299.144 420.531 298.034 421.172 296.891 421.832C294.692 423.099 292.491 424.363 290.289 425.623C285.328 428.467 280.407 431.344 275.566 434.387C274.306 435.164 274.306 435.164 273.019 435.956C271.495 436.9 269.982 437.863 268.487 438.853C262.508 442.512 256.898 443.289 250 442C245.333 440.117 241.136 437.588 236.875 434.938C235.652 434.204 234.426 433.473 233.2 432.744C230.683 431.246 228.175 429.736 225.672 428.215C220.13 424.857 214.498 421.657 208.875 418.438C206.726 417.198 204.578 415.957 202.43 414.715C195.955 410.974 189.478 407.236 183 403.5C180.833 402.25 178.667 401 176.5 399.75C175.428 399.131 174.355 398.513 173.25 397.875C170 396 166.75 394.125 163.5 392.25C162.427 391.631 161.354 391.012 160.249 390.374C158.087 389.127 155.925 387.879 153.763 386.632C148.275 383.464 142.784 380.3 137.289 377.145C131.872 374.032 126.462 370.908 121.058 367.772C119.041 366.603 117.022 365.437 115 364.274C112.223 362.674 109.454 361.058 106.687 359.438C105.876 358.973 105.064 358.509 104.227 358.031C98.908 354.885 94.8292 351.658 92 346C91.8966 343.657 91.8604 341.311 91.8528 338.966C91.8492 338.234 91.8455 337.501 91.8417 336.747C91.8306 334.279 91.8268 331.812 91.823 329.345C91.8167 327.581 91.8101 325.817 91.8031 324.053C91.7857 319.251 91.7751 314.449 91.7669 309.648C91.7617 306.649 91.7557 303.65 91.7494 300.651C91.7303 291.272 91.7161 281.893 91.7078 272.514C91.698 261.681 91.6717 250.848 91.6313 240.015C91.6011 231.646 91.5863 223.278 91.583 214.909C91.5806 209.909 91.5716 204.909 91.5465 199.909C91.5233 195.204 91.519 190.499 91.5293 185.794C91.5298 184.068 91.5234 182.342 91.5097 180.616C91.492 178.257 91.4991 175.9 91.5123 173.542C91.5099 172.222 91.5075 170.903 91.505 169.544C92.2301 164.353 94.5622 161.301 98.3894 157.837C101.112 155.921 103.869 154.236 106.77 152.602C107.893 151.965 109.017 151.328 110.174 150.672C110.767 150.338 111.359 150.005 111.97 149.662C115.135 147.881 118.291 146.086 121.449 144.293C122.41 143.748 122.41 143.748 123.39 143.193C129.329 139.822 135.232 136.389 141.125 132.938C149.4 128.095 157.692 123.285 166 118.5C174.348 113.692 182.682 108.861 191 104C200.471 98.4667 209.948 92.9441 219.469 87.4978C224.654 84.5299 229.803 81.5261 234.887 78.3868C236.28 77.544 236.28 77.544 237.7 76.6841C239.414 75.6452 241.116 74.5866 242.802 73.5035C249.818 69.3007 256.899 68.102 264.722 71.013ZM250.539 105.5C249.607 106.049 248.675 106.598 247.715 107.164C246.695 107.77 245.676 108.376 244.625 109C242.43 110.293 240.235 111.584 238.039 112.875C237.466 113.212 236.893 113.549 236.303 113.897C229.902 117.657 223.452 121.328 217 125C207.278 130.539 197.591 136.134 187.933 141.783C180.678 146.026 173.406 150.24 166.125 154.438C165.061 155.052 163.996 155.666 162.899 156.298C157.787 159.246 152.672 162.19 147.552 165.125C145.153 166.5 142.755 167.878 140.357 169.256C138.664 170.228 136.969 171.197 135.274 172.166C133.735 173.051 133.735 173.051 132.164 173.953C131.261 174.47 130.358 174.988 129.428 175.521C128.226 176.253 128.226 176.253 127 177C125.952 177.6 125.952 177.6 124.882 178.212C122.745 179.893 122.745 179.893 122.483 182.726C122.475 183.837 122.467 184.947 122.458 186.091C122.44 187.365 122.421 188.64 122.402 189.953C122.402 191.368 122.402 192.783 122.403 194.199C122.389 195.687 122.374 197.175 122.357 198.663C122.318 202.709 122.304 206.754 122.298 210.8C122.293 213.328 122.282 215.855 122.27 218.383C122.227 227.201 122.206 236.02 122.204 244.838C122.201 253.058 122.15 261.276 122.077 269.495C122.016 276.551 121.99 283.608 121.991 290.665C121.99 294.879 121.976 299.093 121.926 303.308C121.881 307.274 121.878 311.237 121.909 315.203C121.913 316.657 121.901 318.111 121.873 319.564C121.498 327.47 121.498 327.47 124.969 334.166C127.259 335.719 129.47 336.892 132 338C133.005 338.597 134.011 339.193 135.047 339.808C135.939 340.299 136.831 340.791 137.75 341.297C138.761 341.858 139.772 342.418 140.814 342.996C141.866 343.575 142.917 344.154 144 344.75C151.189 348.742 158.366 352.74 165.438 356.938C172.408 361.073 179.415 365.141 186.438 369.188C188.098 370.145 188.098 370.145 189.793 371.121C192.063 372.429 194.334 373.737 196.605 375.044C200.996 377.574 205.386 380.106 209.775 382.639C211.917 383.875 214.059 385.11 216.202 386.345C221.277 389.271 226.349 392.201 231.413 395.146C233.803 396.536 236.194 397.923 238.586 399.31C240.271 400.289 241.955 401.271 243.639 402.254C245.173 403.143 245.173 403.143 246.738 404.051C248.085 404.835 248.085 404.835 249.458 405.634C250.297 406.085 251.136 406.536 252 407C252.825 407.444 253.65 407.887 254.5 408.344C257.03 409.26 257.03 409.26 259.542 408.088C260.439 407.545 261.337 407.001 262.262 406.441C263.285 405.835 264.308 405.23 265.362 404.605C266.459 403.931 267.557 403.257 268.688 402.563C269.847 401.869 271.008 401.177 272.169 400.487C274.585 399.05 276.996 397.604 279.403 396.153C284.929 392.832 290.531 389.643 296.125 386.438C304.392 381.675 312.64 376.88 320.875 372.063C329.553 366.987 338.266 361.978 347 357C356.186 351.762 365.358 346.502 374.5 341.188C375.503 340.607 376.506 340.026 377.539 339.428C378.465 338.888 379.39 338.349 380.344 337.793C381.15 337.324 381.956 336.855 382.787 336.372C383.517 335.919 384.248 335.466 385 335C385.694 334.602 386.389 334.205 387.104 333.795C389.255 332.11 389.255 332.109 389.517 329.274C389.525 328.163 389.533 327.053 389.542 325.909C389.569 323.998 389.569 323.998 389.598 322.047C389.598 320.632 389.598 319.217 389.597 317.802C389.611 316.313 389.626 314.825 389.642 313.337C389.682 309.291 389.696 305.246 389.702 301.2C389.707 298.673 389.718 296.145 389.73 293.617C389.773 284.799 389.794 275.981 389.796 267.162C389.799 258.942 389.85 250.724 389.923 242.505C389.984 235.449 390.01 228.392 390.009 221.336C390.01 217.121 390.024 212.907 390.074 208.693C390.119 204.727 390.122 200.763 390.091 196.797C390.087 195.343 390.099 193.889 390.127 192.436C390.502 184.53 390.502 184.53 387.031 177.834C384.741 176.281 382.53 175.108 380 174C378.995 173.404 377.989 172.807 376.953 172.192C376.061 171.701 375.169 171.21 374.25 170.703C372.733 169.862 372.733 169.862 371.186 169.004C370.134 168.425 369.083 167.846 368 167.25C360.811 163.258 353.634 159.26 346.562 155.063C339.592 150.927 332.585 146.859 325.562 142.813C324.457 142.175 323.351 141.538 322.212 140.881C318.808 138.92 315.404 136.96 312 135C298.88 127.444 285.766 119.878 272.688 112.25C271.184 111.373 271.184 111.373 269.65 110.478C262.256 106.16 262.256 106.16 259.323 104.323C255.495 102.143 254.129 103.37 250.539 105.5Z" fill="#3E3128"/>
<path d="M264.732 141.009C267.5 142.424 270.116 143.975 272.75 145.625C274.225 146.503 274.225 146.503 275.729 147.399C277.797 148.631 279.858 149.874 281.914 151.127C285.864 153.524 289.858 155.843 293.856 158.16C296.846 159.895 299.83 161.64 302.812 163.387C309.298 167.18 315.804 170.935 322.312 174.688C323.395 175.314 324.478 175.94 325.594 176.585C330.607 179.483 335.629 182.361 340.688 185.18C341.559 185.67 342.43 186.16 343.327 186.665C344.922 187.562 346.522 188.449 348.128 189.325C353.374 192.29 357.242 195.485 360 201C360.1 202.456 360.139 203.917 360.147 205.376C360.158 206.756 360.158 206.756 360.169 208.163C360.172 209.175 360.174 210.187 360.177 211.23C360.184 212.293 360.19 213.357 360.197 214.452C360.217 217.984 360.228 221.515 360.238 225.047C360.242 226.251 360.246 227.455 360.251 228.696C360.272 235.07 360.286 241.444 360.295 247.818C360.306 254.407 360.341 260.996 360.38 267.584C360.406 272.646 360.415 277.707 360.418 282.769C360.423 285.198 360.435 287.626 360.453 290.055C360.478 293.455 360.477 296.853 360.47 300.253C360.489 301.759 360.489 301.759 360.509 303.295C360.465 309.191 359.884 312.486 356 317C354.06 318.655 354.06 318.655 351.996 319.941C351.206 320.438 350.415 320.934 349.601 321.446C344.782 324.325 339.939 327.155 335.062 329.938C333.333 330.93 331.603 331.922 329.873 332.915C328.091 333.938 326.307 334.959 324.524 335.98C319.008 339.14 313.505 342.321 308 345.5C305.858 346.736 303.716 347.972 301.574 349.207C297.595 351.503 293.617 353.798 289.638 356.094C287.849 357.127 286.06 358.159 284.271 359.191C282.027 360.487 279.782 361.782 277.537 363.078C275.545 364.228 273.55 365.37 271.549 366.505C269.075 367.909 269.075 367.909 267.134 369.311C261.775 372.993 256.212 373.102 250 372C245.33 370.123 241.136 367.588 236.875 364.938C235.652 364.204 234.426 363.473 233.2 362.744C230.683 361.246 228.175 359.736 225.672 358.215C220.13 354.857 214.498 351.657 208.875 348.438C206.743 347.207 204.611 345.975 202.48 344.742C198.008 342.157 193.531 339.58 189.051 337.008C182.691 333.355 176.341 329.686 170 326C169.232 325.555 168.463 325.11 167.671 324.651C165.816 323.57 163.968 322.477 162.125 321.375C160.737 320.551 160.737 320.551 159.32 319.711C156.1 317.337 153.79 314.579 152 311C151.9 309.544 151.861 308.083 151.853 306.624C151.846 305.704 151.839 304.785 151.831 303.837C151.828 302.825 151.826 301.813 151.823 300.771C151.816 299.707 151.81 298.643 151.803 297.548C151.783 294.016 151.772 290.485 151.762 286.953C151.758 285.749 151.754 284.545 151.749 283.304C151.728 276.93 151.714 270.556 151.705 264.182C151.694 257.593 151.659 251.005 151.62 244.416C151.594 239.354 151.585 234.293 151.582 229.231C151.577 226.803 151.565 224.374 151.547 221.945C151.522 218.545 151.523 215.147 151.53 211.747C151.517 210.743 151.504 209.739 151.491 208.705C151.535 202.809 152.116 199.515 156 195C157.94 193.346 157.94 193.346 160.004 192.059C160.794 191.562 161.585 191.066 162.399 190.554C167.218 187.675 172.061 184.845 176.938 182.063C178.667 181.07 180.397 180.078 182.127 179.085C183.909 178.062 185.693 177.041 187.476 176.02C192.992 172.86 198.495 169.679 204 166.5C206.142 165.264 208.284 164.029 210.426 162.793C214.405 160.498 218.383 158.202 222.362 155.906C224.151 154.873 225.94 153.841 227.729 152.809C229.973 151.513 232.218 150.218 234.463 148.922C236.455 147.773 238.45 146.63 240.451 145.495C242.925 144.091 242.925 144.091 244.866 142.689C250.811 138.604 258.111 138.564 264.732 141.009ZM250.539 175.5C249.605 176.05 248.672 176.6 247.71 177.167C246.183 178.074 246.183 178.074 244.625 179C242.457 180.28 240.287 181.559 238.117 182.836C237.548 183.171 236.98 183.506 236.393 183.851C232.061 186.396 227.697 188.884 223.32 191.352C222.37 191.888 222.37 191.888 221.401 192.436C216.392 195.267 216.392 195.267 213.901 196.658C212.155 197.633 210.413 198.617 208.672 199.602C207.673 200.162 206.673 200.722 205.644 201.299C203.049 202.968 201.083 204.737 199 207C199.712 207.406 200.424 207.812 201.158 208.231C203.933 209.814 206.709 211.399 209.484 212.983C211.378 214.064 213.273 215.145 215.168 216.225C221.622 219.907 228.062 223.61 234.473 227.367C235.656 228.059 236.84 228.75 238.024 229.441C240.264 230.751 242.501 232.067 244.734 233.389C245.749 233.981 246.763 234.573 247.809 235.184C248.693 235.705 249.578 236.226 250.49 236.763C253.076 238.038 255.132 238.728 258 239C260.575 237.778 262.802 236.525 265.188 235C266.694 234.075 268.202 233.152 269.711 232.231C270.543 231.718 271.376 231.205 272.233 230.677C277.538 227.461 282.932 224.399 288.312 221.313C296.558 216.569 304.788 211.802 313 207C310.339 204.16 307.827 202.132 304.422 200.258C303.519 199.756 302.617 199.253 301.687 198.736C300.718 198.204 299.749 197.673 298.75 197.125C296.684 195.976 294.619 194.824 292.555 193.672C291.483 193.074 290.412 192.477 289.308 191.861C283.795 188.759 278.334 185.57 272.875 182.375C271.863 181.784 270.851 181.192 269.808 180.583C262.332 176.208 262.332 176.208 259.317 174.319C255.493 172.142 254.123 173.373 250.539 175.5ZM183 234C182.604 242.04 182.303 250.077 182.119 258.124C182.031 261.863 181.911 265.595 181.718 269.329C180.249 284.934 180.249 284.934 184.511 299.245C188.385 302.793 192.847 304.568 197.78 306.208C201.103 307.394 203.851 309.126 206.855 310.977C208.966 312.194 211.076 313.41 213.188 314.625C214.851 315.583 214.851 315.583 216.549 316.561C218.72 317.811 220.892 319.061 223.063 320.31C225.624 321.784 228.184 323.261 230.742 324.738C232.016 325.472 233.289 326.205 234.562 326.938C235.616 327.545 236.669 328.152 237.754 328.777C239.72 330.08 239.72 330.08 241 330C241.209 321.89 241.369 313.781 241.466 305.668C241.513 301.901 241.577 298.136 241.679 294.369C241.777 290.732 241.831 287.096 241.854 283.457C241.87 282.072 241.903 280.686 241.952 279.302C242.438 271.523 242.438 271.523 239.115 264.882C236.806 263.316 234.547 262.129 232 261C230.638 260.182 230.638 260.182 229.248 259.348C228.484 258.924 227.72 258.5 226.934 258.063C225.604 257.318 225.604 257.318 224.247 256.559C223.32 256.045 222.393 255.53 221.438 255C211.727 249.571 202.106 244.003 192.543 238.318C191.584 237.753 190.625 237.188 189.637 236.606C188.788 236.102 187.94 235.598 187.065 235.079C185.093 233.846 185.093 233.846 183 234ZM321.523 237.008C320.388 237.659 319.253 238.309 318.084 238.98C316.848 239.695 315.611 240.41 314.375 241.125C313.115 241.85 311.856 242.575 310.596 243.3C307.361 245.162 304.129 247.03 300.899 248.901C299.064 249.963 297.228 251.024 295.392 252.084C292.092 253.989 288.795 255.9 285.5 257.813C284.499 258.392 283.498 258.972 282.466 259.569C281.539 260.11 280.612 260.65 279.656 261.207C278.85 261.676 278.044 262.145 277.213 262.628C276.483 263.081 275.752 263.534 275 264C273.956 264.596 273.956 264.596 272.89 265.203C270.737 266.893 270.737 266.893 270.519 269.753C270.528 270.865 270.537 271.978 270.546 273.124C270.546 274.385 270.547 275.646 270.547 276.945C270.567 278.322 270.588 279.698 270.609 281.074C270.617 282.482 270.623 283.891 270.627 285.299C270.642 289.003 270.681 292.707 270.725 296.41C270.766 300.191 270.785 303.971 270.805 307.752C270.848 315.168 270.916 322.584 271 330C273.247 328.884 275.493 327.765 277.739 326.647C278.372 326.332 279.005 326.018 279.657 325.694C284.135 323.461 288.476 321.097 292.75 318.5C294.161 317.656 295.572 316.814 296.984 315.973C297.758 315.511 298.533 315.05 299.33 314.575C302.484 312.715 305.654 310.884 308.828 309.059C309.419 308.719 310.01 308.379 310.619 308.028C313.007 306.656 315.395 305.284 317.784 303.915C319.461 302.954 321.137 301.991 322.812 301.027C323.788 300.468 324.764 299.908 325.77 299.332C327.896 298.185 327.896 298.185 329 297C329.094 295.036 329.117 293.069 329.114 291.103C329.113 289.842 329.113 288.581 329.113 287.281C329.108 285.895 329.103 284.508 329.098 283.121C329.096 281.71 329.094 280.299 329.093 278.888C329.09 275.168 329.08 271.447 329.069 267.727C329.058 263.933 329.054 260.14 329.049 256.346C329.038 248.897 329.021 241.449 329 234C325.984 234 324.126 235.51 321.523 237.008Z" fill="#3E3128"/>
</g>
<defs>
<clipPath id="clip0_322_6">
<rect width="512" height="512" fill="white"/>
</clipPath>
</defs>
</svg>
