<svg width="512" height="512" viewBox="0 0 512 512" fill="none" xmlns="http://www.w3.org/2000/svg">
<path d="M255 31C255.66 31 256.32 31 257 31C257.381 31.6922 257.762 32.3845 258.155 33.0977C265.551 46.5159 273.032 59.8667 280.797 73.0762C284.957 80.1677 289.003 87.3161 293 94.5C297.576 102.722 302.236 110.886 307 119C312.318 128.062 317.499 137.192 322.614 146.37C326.988 154.211 331.415 162.02 335.875 169.812C336.208 170.395 336.542 170.977 336.885 171.578C338.579 174.536 340.273 177.494 341.968 180.452C344.984 185.716 347.993 190.985 351.002 196.253C352.668 199.169 354.334 202.084 356 205C356.667 206.167 357.333 207.333 358 208.5C358.33 209.077 358.66 209.655 359 210.25C436.672 346.176 436.672 346.176 438.428 349.256C439.389 350.933 440.357 352.606 441.338 354.271C444 358.799 444 358.799 444 361C365.46 361 286.92 361 206 361C207.451 357.372 208.875 354.258 210.766 350.887C211.319 349.899 211.872 348.911 212.441 347.893C213.337 346.306 213.337 346.306 214.25 344.688C214.873 343.58 215.495 342.472 216.137 341.33C220.916 332.853 225.805 324.442 230.732 316.051C235.64 307.67 240.403 299.213 245.119 290.723C246.195 288.788 247.287 286.861 248.396 284.944C250.075 281.979 250.075 281.979 251.423 278.626C253 275.193 254.333 272.685 257 270C262.214 268.537 267.115 268.855 272.438 269.25C273.851 269.31 275.264 269.365 276.678 269.414C280.124 269.546 283.56 269.752 287 270C279.291 256.119 271.496 242.305 263.445 228.619C262.891 227.676 262.337 226.733 261.766 225.762C261.279 224.936 260.792 224.111 260.29 223.26C259.117 221.204 258.034 219.129 257 217C256.34 217 255.68 217 255 217C254.428 218.038 254.428 218.038 253.845 219.098C246.449 232.516 238.968 245.867 231.203 259.076C227.043 266.168 222.997 273.316 219 280.5C213.864 289.729 208.598 298.872 203.25 307.98C199.078 315.105 195.015 322.285 191 329.5C185.913 338.639 180.723 347.709 175.408 356.717C169.124 367.399 163.102 378.203 157 389C257.65 389.33 358.3 389.66 462 390C466.95 398.91 471.9 407.82 477 417C482.243 426.002 482.243 426.002 487.508 434.992C491.815 442.363 495.974 449.815 500.119 457.278C500.656 458.243 501.193 459.209 501.746 460.203C502.271 461.147 502.795 462.092 503.335 463.064C505.712 467.255 508.2 471.377 510.699 475.495C512 478 512 478 512 481C343.04 481 174.08 481 0 481C0.900746 476.496 1.79384 474.226 4.03516 470.371C4.67131 469.268 5.30746 468.166 5.96289 467.029C6.6627 465.832 7.36258 464.635 8.0625 463.438C8.78785 462.185 9.51245 460.931 10.2363 459.678C11.7407 457.074 13.2484 454.471 14.7583 451.871C18.2028 445.931 21.5989 439.964 25 434C26.3328 431.666 27.6664 429.333 29 427C29.6667 425.833 30.3333 424.667 31 423.5C64 365.75 97 308 179 164.5C179.33 163.923 179.66 163.345 180 162.75C180.667 161.583 181.334 160.416 182 159.249C183.665 156.337 185.329 153.424 186.993 150.511C190.02 145.214 193.047 139.917 196.077 134.622C202.577 123.262 209.069 111.899 215.5 100.5C220.245 92.0893 225.019 83.6956 229.812 75.3125C230.308 74.4459 230.308 74.4459 230.814 73.5618C232.852 69.9975 234.891 66.4336 236.93 62.8698C239.908 57.6654 242.886 52.4606 245.862 47.2552C246.92 45.406 247.978 43.5571 249.036 41.7083C249.673 40.5954 250.309 39.4825 250.965 38.3359C251.81 36.8594 251.81 36.8594 252.672 35.353C253.481 33.9201 254.264 32.4718 255 31ZM255 95C247.879 107.101 240.827 119.231 234 131.5C228.864 140.729 223.598 149.872 218.25 158.98C214.078 166.105 210.015 173.285 206 180.5C200.864 189.729 195.598 198.872 190.25 207.98C186.078 215.105 182.015 222.285 178 229.5C172.864 238.729 167.598 247.872 162.25 256.98C158.078 264.105 154.015 271.285 150 278.5C144.864 287.729 139.598 296.872 134.25 305.98C130.078 313.105 126.015 320.285 122 327.5C116.864 336.729 111.598 345.872 106.25 354.98C101.47 363.142 96.8465 371.384 92.2478 379.649C87.7198 387.766 83.0505 395.793 78.3401 403.805C73.0959 412.76 68.0557 421.822 63.0608 430.917C60.4982 435.571 57.9325 440.182 55.0664 444.656C52.8248 447.628 52.8248 447.628 53 450C186.98 450 320.96 450 459 450C457.493 446.233 455.978 443.012 453.996 439.516C453.421 438.499 452.845 437.481 452.252 436.434C451.653 435.383 451.054 434.332 450.438 433.25C449.835 432.184 449.232 431.118 448.611 430.02C446.182 425.24 446.182 425.24 443 421C441.191 420.903 439.378 420.876 437.567 420.877C436.381 420.875 435.194 420.873 433.972 420.871C432.639 420.874 431.305 420.877 429.972 420.88C428.569 420.879 427.165 420.878 425.762 420.877C421.888 420.875 418.014 420.879 414.139 420.884C409.968 420.888 405.797 420.887 401.626 420.886C394.393 420.885 387.16 420.889 379.928 420.894C369.47 420.902 359.013 420.905 348.555 420.906C331.59 420.908 314.626 420.915 297.661 420.925C281.177 420.934 264.693 420.941 248.209 420.945C247.193 420.945 246.178 420.946 245.132 420.946C240.039 420.947 234.945 420.948 229.852 420.95C187.568 420.96 145.284 420.978 103 421C104.921 417.468 106.843 413.938 108.766 410.407C109.307 409.413 109.848 408.418 110.405 407.393C114.115 400.586 117.915 393.853 121.875 387.188C126.687 379.014 131.389 370.789 136 362.5C141.136 353.271 146.402 344.128 151.75 335.02C155.922 327.895 159.985 320.715 164 313.5C169.136 304.271 174.402 295.128 179.75 286.02C183.922 278.895 187.985 271.715 192 264.5C197.136 255.271 202.402 246.128 207.75 237.02C211.922 229.895 215.985 222.715 220 215.5C224.576 207.278 229.236 199.115 234 191C239.033 182.416 243.992 173.795 248.875 165.125C249.795 163.501 249.795 163.501 250.734 161.844C251.294 160.846 251.853 159.848 252.43 158.82C252.927 157.936 253.425 157.052 253.937 156.141C255.148 154.1 255.148 154.1 255 152C255.66 152 256.32 152 257 152C257.201 152.767 257.402 153.534 257.609 154.324C259.572 159.512 262.408 164.062 265.25 168.812C270.277 177.316 275.203 185.864 280 194.5C284.552 202.682 289.192 210.803 293.938 218.875C299.576 228.471 305.007 238.169 310.383 247.913C315.099 256.437 319.948 264.873 324.906 273.258C330.106 282.078 335.053 291.037 340 300C339.212 299.993 338.423 299.985 337.611 299.977C330.166 299.915 322.722 299.896 315.277 299.925C311.45 299.938 307.624 299.935 303.796 299.894C300.1 299.854 296.406 299.859 292.709 299.894C291.302 299.9 289.894 299.889 288.487 299.863C280.59 299.499 280.59 299.499 273.862 302.91C272.302 305.212 271.12 307.459 270 310C269.472 310.872 268.945 311.744 268.401 312.642C267.138 314.905 265.876 317.168 264.625 319.438C264.175 320.239 263.725 321.04 263.262 321.865C262.838 322.63 262.414 323.395 261.977 324.184C261.596 324.87 261.215 325.556 260.823 326.263C259.857 327.981 259.857 327.981 260 330C303.23 330 346.46 330 391 330C381.279 312.178 371.489 294.422 361.201 276.921C357.042 269.831 352.997 262.683 349 255.5C344.424 247.278 339.764 239.114 335 231C329.628 221.851 324.409 212.626 319.25 203.355C315.25 196.186 311.157 189.079 307 182C301.628 172.851 296.409 163.626 291.25 154.355C286.698 146.196 282.016 138.12 277.274 130.07C274.147 124.743 271.087 119.386 268.113 113.973C267.477 112.818 266.841 111.664 266.186 110.475C264.959 108.24 263.74 106 262.529 103.756C261.98 102.755 261.43 101.754 260.863 100.723C260.382 99.8333 259.9 98.9439 259.404 98.0276C258.09 95.6966 258.09 95.6966 255 95Z" fill="#3E3128"/>
</svg>
