<svg width="89" height="89" viewBox="0 0 89 89" fill="none" xmlns="http://www.w3.org/2000/svg">
<rect x="1.48333" y="1.48333" width="86.0333" height="86.0333" stroke="#f4e6d5" stroke-width="2.96667"/>
<mask id="path-2-outside-1_36_10" maskUnits="userSpaceOnUse" x="13.6416" y="13.905" width="61" height="61" fill="#f4e6d5">
<rect fill="white" x="13.6416" y="13.905" width="61" height="61"/>
<path d="M32.7712 35.3818V39.905H17.3007V35.3818H32.7712ZM32.6656 17.3769L19.9232 39.905H15.9455V36.7194L28.8464 14.2793H32.6656V17.3769ZM30.8352 14.2793V18.8201H15.7871V14.2793H30.8352ZM52.4376 35.3818V39.905H41.2615V35.3818H52.4376ZM43.1095 14.2793V39.905H37.5127V14.2793H43.1095ZM50.9592 24.5577V28.9226H41.2615V24.5577H50.9592ZM52.4376 14.2793V18.8201H41.2615V14.2793H52.4376ZM56.9678 14.2793H65.4687C67.1818 14.2793 68.6543 14.5726 69.8863 15.1593C71.1183 15.746 72.0629 16.6142 72.7199 17.7641C73.3887 18.914 73.7231 20.3337 73.7231 22.0233C73.7231 23.4548 73.5354 24.6633 73.1599 25.649C72.7845 26.6228 72.2565 27.4324 71.5759 28.0778C70.8954 28.7231 70.0917 29.2452 69.1647 29.6442L67.3871 30.6826H60.6111L60.5935 26.1594H65.3279C65.9615 26.1594 66.4836 26.0127 66.8943 25.7194C67.305 25.426 67.61 25.0095 67.8095 24.4697C68.0207 23.9183 68.1263 23.2671 68.1263 22.5161C68.1263 21.7417 68.0266 21.0788 67.8271 20.5273C67.6394 19.9759 67.3519 19.5535 66.9647 19.2601C66.5892 18.9668 66.0906 18.8201 65.4687 18.8201H62.5647V39.905H56.9678V14.2793ZM68.4783 39.905L63.8495 28.5178L69.7279 28.5002L74.4623 39.641V39.905H68.4783ZM25.8192 48.2793V73.905H20.24V48.2793H25.8192ZM32.1024 48.2793V52.8201H14.0975V48.2793H32.1024ZM44.0423 53.2601L38.9031 73.905H32.9367L40.9095 48.2793H44.6231L44.0423 53.2601ZM48.0904 73.905L42.9335 53.2601L42.2647 48.2793H46.0487L54.0568 73.905H48.0904ZM48.284 64.3482V68.8714H36.9319V64.3482H48.284ZM68.8479 67.129C68.8479 66.6949 68.8068 66.3077 68.7247 65.9674C68.6426 65.6154 68.4842 65.2927 68.2495 64.9994C68.0148 64.6943 67.6628 64.3892 67.1935 64.0842C66.7242 63.7791 66.1082 63.4623 65.3455 63.1338C64.4068 62.7466 63.4916 62.3242 62.5999 61.8666C61.7199 61.3972 60.9279 60.8575 60.2239 60.2474C59.5199 59.6255 58.9567 58.898 58.5343 58.0649C58.1119 57.2201 57.9006 56.2345 57.9006 55.1081C57.9006 54.0169 58.106 53.0313 58.5167 52.1513C58.9273 51.2596 59.5023 50.5028 60.2415 49.8809C60.9807 49.2473 61.8548 48.7662 62.8639 48.4377C63.8729 48.0974 64.9818 47.9273 66.1903 47.9273C67.8212 47.9273 69.2468 48.2617 70.4671 48.9305C71.6874 49.5876 72.6378 50.5145 73.3183 51.7113C73.9989 52.8964 74.3391 54.2809 74.3391 55.8649H68.7775C68.7775 55.1727 68.6836 54.5684 68.4959 54.0521C68.3082 53.5241 68.0148 53.1134 67.6159 52.8201C67.2287 52.515 66.7183 52.3625 66.0847 52.3625C65.498 52.3625 65.0111 52.4857 64.6239 52.7321C64.2367 52.9785 63.9492 53.3129 63.7615 53.7353C63.5737 54.1577 63.4799 54.6271 63.4799 55.1433C63.4799 55.554 63.5737 55.9177 63.7615 56.2345C63.9609 56.5513 64.225 56.8447 64.5535 57.1145C64.8938 57.3844 65.2927 57.6425 65.7503 57.8889C66.2196 58.1353 66.7242 58.37 67.2639 58.5929C68.4138 59.0505 69.4346 59.5492 70.3263 60.089C71.2298 60.6287 71.9807 61.2388 72.5791 61.9194C73.1893 62.5882 73.6469 63.3508 73.9519 64.2074C74.2687 65.0522 74.4271 66.0143 74.4271 67.0938C74.4271 68.1967 74.2394 69.1941 73.8639 70.0858C73.4885 70.9658 72.9487 71.7168 72.2447 72.3386C71.5525 72.9605 70.7077 73.4357 69.7103 73.7642C68.713 74.0928 67.5983 74.257 66.3663 74.257C65.2047 74.257 64.0842 74.0928 63.0047 73.7642C61.9252 73.424 60.9631 72.9077 60.1183 72.2154C59.2852 71.5231 58.6223 70.6373 58.1295 69.5578C57.6366 68.4783 57.3902 67.1935 57.3902 65.7034H62.9871C62.9871 66.4661 63.0516 67.1173 63.1807 67.657C63.3215 68.185 63.5327 68.6074 63.8143 68.9242C64.1076 69.241 64.4655 69.4757 64.8879 69.6282C65.322 69.769 65.8383 69.8394 66.4367 69.8394C67.0468 69.8394 67.5279 69.7162 67.8799 69.4698C68.2319 69.2234 68.4783 68.9007 68.6191 68.5018C68.7716 68.0911 68.8479 67.6335 68.8479 67.129Z"/>
</mask>
<path d="M32.7712 35.3818V39.905H17.3007V35.3818H32.7712ZM32.6656 17.3769L19.9232 39.905H15.9455V36.7194L28.8464 14.2793H32.6656V17.3769ZM30.8352 14.2793V18.8201H15.7871V14.2793H30.8352ZM52.4376 35.3818V39.905H41.2615V35.3818H52.4376ZM43.1095 14.2793V39.905H37.5127V14.2793H43.1095ZM50.9592 24.5577V28.9226H41.2615V24.5577H50.9592ZM52.4376 14.2793V18.8201H41.2615V14.2793H52.4376ZM56.9678 14.2793H65.4687C67.1818 14.2793 68.6543 14.5726 69.8863 15.1593C71.1183 15.746 72.0629 16.6142 72.7199 17.7641C73.3887 18.914 73.7231 20.3337 73.7231 22.0233C73.7231 23.4548 73.5354 24.6633 73.1599 25.649C72.7845 26.6228 72.2565 27.4324 71.5759 28.0778C70.8954 28.7231 70.0917 29.2452 69.1647 29.6442L67.3871 30.6826H60.6111L60.5935 26.1594H65.3279C65.9615 26.1594 66.4836 26.0127 66.8943 25.7194C67.305 25.426 67.61 25.0095 67.8095 24.4697C68.0207 23.9183 68.1263 23.2671 68.1263 22.5161C68.1263 21.7417 68.0266 21.0788 67.8271 20.5273C67.6394 19.9759 67.3519 19.5535 66.9647 19.2601C66.5892 18.9668 66.0906 18.8201 65.4687 18.8201H62.5647V39.905H56.9678V14.2793ZM68.4783 39.905L63.8495 28.5178L69.7279 28.5002L74.4623 39.641V39.905H68.4783ZM25.8192 48.2793V73.905H20.24V48.2793H25.8192ZM32.1024 48.2793V52.8201H14.0975V48.2793H32.1024ZM44.0423 53.2601L38.9031 73.905H32.9367L40.9095 48.2793H44.6231L44.0423 53.2601ZM48.0904 73.905L42.9335 53.2601L42.2647 48.2793H46.0487L54.0568 73.905H48.0904ZM48.284 64.3482V68.8714H36.9319V64.3482H48.284ZM68.8479 67.129C68.8479 66.6949 68.8068 66.3077 68.7247 65.9674C68.6426 65.6154 68.4842 65.2927 68.2495 64.9994C68.0148 64.6943 67.6628 64.3892 67.1935 64.0842C66.7242 63.7791 66.1082 63.4623 65.3455 63.1338C64.4068 62.7466 63.4916 62.3242 62.5999 61.8666C61.7199 61.3972 60.9279 60.8575 60.2239 60.2474C59.5199 59.6255 58.9567 58.898 58.5343 58.0649C58.1119 57.2201 57.9006 56.2345 57.9006 55.1081C57.9006 54.0169 58.106 53.0313 58.5167 52.1513C58.9273 51.2596 59.5023 50.5028 60.2415 49.8809C60.9807 49.2473 61.8548 48.7662 62.8639 48.4377C63.8729 48.0974 64.9818 47.9273 66.1903 47.9273C67.8212 47.9273 69.2468 48.2617 70.4671 48.9305C71.6874 49.5876 72.6378 50.5145 73.3183 51.7113C73.9989 52.8964 74.3391 54.2809 74.3391 55.8649H68.7775C68.7775 55.1727 68.6836 54.5684 68.4959 54.0521C68.3082 53.5241 68.0148 53.1134 67.6159 52.8201C67.2287 52.515 66.7183 52.3625 66.0847 52.3625C65.498 52.3625 65.0111 52.4857 64.6239 52.7321C64.2367 52.9785 63.9492 53.3129 63.7615 53.7353C63.5737 54.1577 63.4799 54.6271 63.4799 55.1433C63.4799 55.554 63.5737 55.9177 63.7615 56.2345C63.9609 56.5513 64.225 56.8447 64.5535 57.1145C64.8938 57.3844 65.2927 57.6425 65.7503 57.8889C66.2196 58.1353 66.7242 58.37 67.2639 58.5929C68.4138 59.0505 69.4346 59.5492 70.3263 60.089C71.2298 60.6287 71.9807 61.2388 72.5791 61.9194C73.1893 62.5882 73.6469 63.3508 73.9519 64.2074C74.2687 65.0522 74.4271 66.0143 74.4271 67.0938C74.4271 68.1967 74.2394 69.1941 73.8639 70.0858C73.4885 70.9658 72.9487 71.7168 72.2447 72.3386C71.5525 72.9605 70.7077 73.4357 69.7103 73.7642C68.713 74.0928 67.5983 74.257 66.3663 74.257C65.2047 74.257 64.0842 74.0928 63.0047 73.7642C61.9252 73.424 60.9631 72.9077 60.1183 72.2154C59.2852 71.5231 58.6223 70.6373 58.1295 69.5578C57.6366 68.4783 57.3902 67.1935 57.3902 65.7034H62.9871C62.9871 66.4661 63.0516 67.1173 63.1807 67.657C63.3215 68.185 63.5327 68.6074 63.8143 68.9242C64.1076 69.241 64.4655 69.4757 64.8879 69.6282C65.322 69.769 65.8383 69.8394 66.4367 69.8394C67.0468 69.8394 67.5279 69.7162 67.8799 69.4698C68.2319 69.2234 68.4783 68.9007 68.6191 68.5018C68.7716 68.0911 68.8479 67.6335 68.8479 67.129Z" fill="#f4e6d5"/>
<path d="M32.7712 35.3818H32.9196V35.2335H32.7712V35.3818ZM32.7712 39.905V40.0534H32.9196V39.905H32.7712ZM17.3007 39.905H17.1524V40.0534H17.3007V39.905ZM17.3007 35.3818V35.2335H17.1524V35.3818H17.3007ZM32.6656 17.3769L32.7947 17.4499L32.814 17.4159V17.3769H32.6656ZM19.9232 39.905V40.0534H20.0097L20.0523 39.9781L19.9232 39.905ZM15.9455 39.905H15.7972V40.0534H15.9455V39.905ZM15.9455 36.7194L15.8169 36.6455L15.7972 36.6798V36.7194H15.9455ZM28.8464 14.2793V14.131H28.7606L28.7178 14.2054L28.8464 14.2793ZM32.6656 14.2793H32.814V14.131H32.6656V14.2793ZM30.8352 14.2793H30.9836V14.131H30.8352V14.2793ZM30.8352 18.8201V18.9684H30.9836V18.8201H30.8352ZM15.7871 18.8201H15.6388V18.9684H15.7871V18.8201ZM15.7871 14.2793V14.131H15.6388V14.2793H15.7871ZM32.7712 35.3818H32.6229V39.905H32.7712H32.9196V35.3818H32.7712ZM32.7712 39.905V39.7567H17.3007V39.905V40.0534H32.7712V39.905ZM17.3007 39.905H17.4491V35.3818H17.3007H17.1524V39.905H17.3007ZM17.3007 35.3818V35.5301H32.7712V35.3818V35.2335H17.3007V35.3818ZM32.6656 17.3769L32.5365 17.3039L19.794 39.832L19.9232 39.905L20.0523 39.9781L32.7947 17.4499L32.6656 17.3769ZM19.9232 39.905V39.7567H15.9455V39.905V40.0534H19.9232V39.905ZM15.9455 39.905H16.0939V36.7194H15.9455H15.7972V39.905H15.9455ZM15.9455 36.7194L16.0741 36.7933L28.975 14.3532L28.8464 14.2793L28.7178 14.2054L15.8169 36.6455L15.9455 36.7194ZM28.8464 14.2793V14.4276H32.6656V14.2793V14.131H28.8464V14.2793ZM32.6656 14.2793H32.5173V17.3769H32.6656H32.814V14.2793H32.6656ZM30.8352 14.2793H30.6869V18.8201H30.8352H30.9836V14.2793H30.8352ZM30.8352 18.8201V18.6718H15.7871V18.8201V18.9684H30.8352V18.8201ZM15.7871 18.8201H15.9355V14.2793H15.7871H15.6388V18.8201H15.7871ZM15.7871 14.2793V14.4276H30.8352V14.2793V14.131H15.7871V14.2793ZM52.4376 35.3818H52.5859V35.2335H52.4376V35.3818ZM52.4376 39.905V40.0534H52.5859V39.905H52.4376ZM41.2615 39.905H41.1132V40.0534H41.2615V39.905ZM41.2615 35.3818V35.2335H41.1132V35.3818H41.2615ZM43.1095 14.2793H43.2579V14.131H43.1095V14.2793ZM43.1095 39.905V40.0534H43.2579V39.905H43.1095ZM37.5127 39.905H37.3644V40.0534H37.5127V39.905ZM37.5127 14.2793V14.131H37.3644V14.2793H37.5127ZM50.9592 24.5577H51.1075V24.4094H50.9592V24.5577ZM50.9592 28.9226V29.0709H51.1075V28.9226H50.9592ZM41.2615 28.9226H41.1132V29.0709H41.2615V28.9226ZM41.2615 24.5577V24.4094H41.1132V24.5577H41.2615ZM52.4376 14.2793H52.5859V14.131H52.4376V14.2793ZM52.4376 18.8201V18.9684H52.5859V18.8201H52.4376ZM41.2615 18.8201H41.1132V18.9684H41.2615V18.8201ZM41.2615 14.2793V14.131H41.1132V14.2793H41.2615ZM52.4376 35.3818H52.2892V39.905H52.4376H52.5859V35.3818H52.4376ZM52.4376 39.905V39.7567H41.2615V39.905V40.0534H52.4376V39.905ZM41.2615 39.905H41.4098V35.3818H41.2615H41.1132V39.905H41.2615ZM41.2615 35.3818V35.5301H52.4376V35.3818V35.2335H41.2615V35.3818ZM43.1095 14.2793H42.9612V39.905H43.1095H43.2579V14.2793H43.1095ZM43.1095 39.905V39.7567H37.5127V39.905V40.0534H43.1095V39.905ZM37.5127 39.905H37.661V14.2793H37.5127H37.3644V39.905H37.5127ZM37.5127 14.2793V14.4276H43.1095V14.2793V14.131H37.5127V14.2793ZM50.9592 24.5577H50.8108V28.9226H50.9592H51.1075V24.5577H50.9592ZM50.9592 28.9226V28.7742H41.2615V28.9226V29.0709H50.9592V28.9226ZM41.2615 28.9226H41.4098V24.5577H41.2615H41.1132V28.9226H41.2615ZM41.2615 24.5577V24.7061H50.9592V24.5577V24.4094H41.2615V24.5577ZM52.4376 14.2793H52.2892V18.8201H52.4376H52.5859V14.2793H52.4376ZM52.4376 18.8201V18.6718H41.2615V18.8201V18.9684H52.4376V18.8201ZM41.2615 18.8201H41.4098V14.2793H41.2615H41.1132V18.8201H41.2615ZM41.2615 14.2793V14.4276H52.4376V14.2793V14.131H41.2615V14.2793ZM56.9678 14.2793V14.131H56.8195V14.2793H56.9678ZM72.7199 17.7641L72.5911 17.8377L72.5917 17.8387L72.7199 17.7641ZM73.1599 25.649L73.2983 25.7023L73.2985 25.7018L73.1599 25.649ZM69.1647 29.6442L69.1061 29.5079L69.0977 29.5115L69.0899 29.5161L69.1647 29.6442ZM67.3871 30.6826V30.8309H67.4273L67.4619 30.8107L67.3871 30.6826ZM60.6111 30.6826L60.4627 30.6832L60.4633 30.8309H60.6111V30.6826ZM60.5935 26.1594V26.011H60.4446L60.4451 26.1599L60.5935 26.1594ZM67.8095 24.4697L67.671 24.4167L67.6704 24.4183L67.8095 24.4697ZM67.8271 20.5273L67.6867 20.5751L67.6876 20.5778L67.8271 20.5273ZM66.9647 19.2601L66.8734 19.377L66.8751 19.3784L66.9647 19.2601ZM62.5647 18.8201V18.6718H62.4163V18.8201H62.5647ZM62.5647 39.905V40.0534H62.713V39.905H62.5647ZM56.9678 39.905H56.8195V40.0534H56.9678V39.905ZM68.4783 39.905L68.3409 39.9609L68.3785 40.0534H68.4783V39.905ZM63.8495 28.5178L63.849 28.3694L63.6293 28.3701L63.7121 28.5736L63.8495 28.5178ZM69.7279 28.5002L69.8644 28.4422L69.8259 28.3515L69.7275 28.3518L69.7279 28.5002ZM74.4623 39.641H74.6107V39.6108L74.5989 39.583L74.4623 39.641ZM74.4623 39.905V40.0534H74.6107V39.905H74.4623ZM56.9678 14.2793V14.4276H65.4687V14.2793V14.131H56.9678V14.2793ZM65.4687 14.2793V14.4276C67.1652 14.4276 68.6149 14.7181 69.8225 15.2932L69.8863 15.1593L69.9501 15.0254C68.6937 14.4271 67.1984 14.131 65.4687 14.131V14.2793ZM69.8863 15.1593L69.8225 15.2932C71.0281 15.8673 71.9496 16.7149 72.5911 17.8377L72.7199 17.7641L72.8487 17.6905C72.1762 16.5135 71.2085 15.6246 69.9501 15.0254L69.8863 15.1593ZM72.7199 17.7641L72.5917 17.8387C73.2442 18.9606 73.5748 20.353 73.5748 22.0233H73.7231H73.8715C73.8715 20.3145 73.5332 18.8674 72.8482 17.6895L72.7199 17.7641ZM73.7231 22.0233H73.5748C73.5748 23.4428 73.3885 24.6322 73.0213 25.5961L73.1599 25.649L73.2985 25.7018C73.6823 24.6944 73.8715 23.4668 73.8715 22.0233H73.7231ZM73.1599 25.649L73.0215 25.5956C72.6531 26.5512 72.1367 27.3416 71.4739 27.9701L71.5759 28.0778L71.678 28.1854C72.3763 27.5233 72.9158 26.6944 73.2983 25.7023L73.1599 25.649ZM71.5759 28.0778L71.4739 27.9701C70.8069 28.6026 70.0182 29.1154 69.1061 29.5079L69.1647 29.6442L69.2234 29.7804C70.1651 29.3751 70.9838 28.8436 71.678 28.1854L71.5759 28.0778ZM69.1647 29.6442L69.0899 29.5161L67.3123 30.5545L67.3871 30.6826L67.4619 30.8107L69.2395 29.7723L69.1647 29.6442ZM67.3871 30.6826V30.5342H60.6111V30.6826V30.8309H67.3871V30.6826ZM60.6111 30.6826L60.7594 30.682L60.7418 26.1588L60.5935 26.1594L60.4451 26.1599L60.4627 30.6832L60.6111 30.6826ZM60.5935 26.1594V26.3077H65.3279V26.1594V26.011H60.5935V26.1594ZM65.3279 26.1594V26.3077C65.9845 26.3077 66.5389 26.1555 66.9805 25.8401L66.8943 25.7194L66.8081 25.5986C66.4284 25.8699 65.9385 26.011 65.3279 26.011V26.1594ZM66.8943 25.7194L66.9805 25.8401C67.4186 25.5271 67.7404 25.0847 67.9486 24.5212L67.8095 24.4697L67.6704 24.4183C67.4797 24.9342 67.1913 25.3249 66.8081 25.5986L66.8943 25.7194ZM67.8095 24.4697L67.948 24.5228C68.1672 23.9505 68.2746 23.2805 68.2746 22.5161H68.1263H67.978C67.978 23.2536 67.8742 23.8861 67.671 24.4167L67.8095 24.4697ZM68.1263 22.5161H68.2746C68.2746 21.7297 68.1735 21.0488 67.9666 20.4769L67.8271 20.5273L67.6876 20.5778C67.8797 21.1088 67.978 21.7537 67.978 22.5161H68.1263ZM67.8271 20.5273L67.9675 20.4795C67.7722 19.9057 67.4694 19.4564 67.0543 19.1419L66.9647 19.2601L66.8751 19.3784C67.2344 19.6505 67.5066 20.046 67.6867 20.5751L67.8271 20.5273ZM66.9647 19.2601L67.056 19.1432C66.6475 18.824 66.1135 18.6718 65.4687 18.6718V18.8201V18.9684C66.0676 18.9684 66.531 19.1095 66.8734 19.377L66.9647 19.2601ZM65.4687 18.8201V18.6718H62.5647V18.8201V18.9684H65.4687V18.8201ZM62.5647 18.8201H62.4163V39.905H62.5647H62.713V18.8201H62.5647ZM62.5647 39.905V39.7567H56.9678V39.905V40.0534H62.5647V39.905ZM56.9678 39.905H57.1162V14.2793H56.9678H56.8195V39.905H56.9678ZM68.4783 39.905L68.6157 39.8492L63.9869 28.4619L63.8495 28.5178L63.7121 28.5736L68.3409 39.9609L68.4783 39.905ZM63.8495 28.5178L63.8499 28.6661L69.7284 28.6485L69.7279 28.5002L69.7275 28.3518L63.849 28.3694L63.8495 28.5178ZM69.7279 28.5002L69.5914 28.5582L74.3258 39.699L74.4623 39.641L74.5989 39.583L69.8644 28.4422L69.7279 28.5002ZM74.4623 39.641H74.314V39.905H74.4623H74.6107V39.641H74.4623ZM74.4623 39.905V39.7567H68.4783V39.905V40.0534H74.4623V39.905ZM25.8192 48.2793H25.9675V48.131H25.8192V48.2793ZM25.8192 73.905V74.0534H25.9675V73.905H25.8192ZM20.24 73.905H20.0916V74.0534H20.24V73.905ZM20.24 48.2793V48.131H20.0916V48.2793H20.24ZM32.1024 48.2793H32.2508V48.131H32.1024V48.2793ZM32.1024 52.8201V52.9684H32.2508V52.8201H32.1024ZM14.0975 52.8201H13.9492V52.9684H14.0975V52.8201ZM14.0975 48.2793V48.131H13.9492V48.2793H14.0975ZM25.8192 48.2793H25.6709V73.905H25.8192H25.9675V48.2793H25.8192ZM25.8192 73.905V73.7567H20.24V73.905V74.0534H25.8192V73.905ZM20.24 73.905H20.3883V48.2793H20.24H20.0916V73.905H20.24ZM20.24 48.2793V48.4276H25.8192V48.2793V48.131H20.24V48.2793ZM32.1024 48.2793H31.9541V52.8201H32.1024H32.2508V48.2793H32.1024ZM32.1024 52.8201V52.6718H14.0975V52.8201V52.9684H32.1024V52.8201ZM14.0975 52.8201H14.2459V48.2793H14.0975H13.9492V52.8201H14.0975ZM14.0975 48.2793V48.4276H32.1024V48.2793V48.131H14.0975V48.2793ZM44.0423 53.2601L44.1863 53.2959L44.1886 53.2867L44.1897 53.2773L44.0423 53.2601ZM38.9031 73.905V74.0534H39.019L39.047 73.9409L38.9031 73.905ZM32.9367 73.905L32.795 73.861L32.7352 74.0534H32.9367V73.905ZM40.9095 48.2793V48.131H40.8003L40.7679 48.2352L40.9095 48.2793ZM44.6231 48.2793L44.7705 48.2965L44.7898 48.131H44.6231V48.2793ZM48.0904 73.905L47.9464 73.941L47.9745 74.0534H48.0904V73.905ZM42.9335 53.2601L42.7865 53.2799L42.7876 53.288L42.7896 53.2961L42.9335 53.2601ZM42.2647 48.2793V48.131H42.0951L42.1177 48.299L42.2647 48.2793ZM46.0487 48.2793L46.1903 48.235L46.1578 48.131H46.0487V48.2793ZM54.0568 73.905V74.0534H54.2585L54.1984 73.8608L54.0568 73.905ZM48.284 64.3482H48.4323V64.1998H48.284V64.3482ZM48.284 68.8714V69.0197H48.4323V68.8714H48.284ZM36.9319 68.8714H36.7836V69.0197H36.9319V68.8714ZM36.9319 64.3482V64.1998H36.7836V64.3482H36.9319ZM44.0423 53.2601L43.8984 53.2243L38.7592 73.8692L38.9031 73.905L39.047 73.9409L44.1863 53.2959L44.0423 53.2601ZM38.9031 73.905V73.7567H32.9367V73.905V74.0534H38.9031V73.905ZM32.9367 73.905L33.0783 73.9491L41.0512 48.3234L40.9095 48.2793L40.7679 48.2352L32.795 73.861L32.9367 73.905ZM40.9095 48.2793V48.4276H44.6231V48.2793V48.131H40.9095V48.2793ZM44.6231 48.2793L44.4758 48.2621L43.895 53.2429L44.0423 53.2601L44.1897 53.2773L44.7705 48.2965L44.6231 48.2793ZM48.0904 73.905L48.2343 73.8691L43.0774 53.2242L42.9335 53.2601L42.7896 53.2961L47.9464 73.941L48.0904 73.905ZM42.9335 53.2601L43.0805 53.2404L42.4117 48.2595L42.2647 48.2793L42.1177 48.299L42.7865 53.2799L42.9335 53.2601ZM42.2647 48.2793V48.4276H46.0487V48.2793V48.131H42.2647V48.2793ZM46.0487 48.2793L45.9072 48.3235L53.9152 73.9493L54.0568 73.905L54.1984 73.8608L46.1903 48.235L46.0487 48.2793ZM54.0568 73.905V73.7567H48.0904V73.905V74.0534H54.0568V73.905ZM48.284 64.3482H48.1356V68.8714H48.284H48.4323V64.3482H48.284ZM48.284 68.8714V68.7231H36.9319V68.8714V69.0197H48.284V68.8714ZM36.9319 68.8714H37.0802V64.3482H36.9319H36.7836V68.8714H36.9319ZM36.9319 64.3482V64.4965H48.284V64.3482V64.1998H36.9319V64.3482ZM68.7247 65.9674L68.5803 66.0011L68.5805 66.0022L68.7247 65.9674ZM68.2495 64.9994L68.1319 65.0898L68.1337 65.092L68.2495 64.9994ZM65.3455 63.1338L65.4042 62.9975L65.4021 62.9966L65.3455 63.1338ZM62.5999 61.8666L62.5301 61.9975L62.5322 61.9985L62.5999 61.8666ZM60.2239 60.2474L60.1257 60.3585L60.1267 60.3594L60.2239 60.2474ZM58.5343 58.0649L58.4016 58.1313L58.402 58.132L58.5343 58.0649ZM58.5167 52.1513L58.6511 52.214L58.6514 52.2134L58.5167 52.1513ZM60.2415 49.8809L60.337 49.9944L60.338 49.9935L60.2415 49.8809ZM62.8639 48.4377L62.9098 48.5787L62.9113 48.5782L62.8639 48.4377ZM70.4671 48.9305L70.3958 49.0606L70.3968 49.0611L70.4671 48.9305ZM73.3183 51.7113L73.1894 51.7846L73.1897 51.7852L73.3183 51.7113ZM74.3391 55.8649V56.0133H74.4875V55.8649H74.3391ZM68.7775 55.8649H68.6292V56.0133H68.7775V55.8649ZM68.4959 54.0521L68.3561 54.1018L68.3565 54.1028L68.4959 54.0521ZM67.6159 52.8201L67.5241 52.9367L67.528 52.9396L67.6159 52.8201ZM63.7615 56.2345L63.6338 56.3102L63.636 56.3136L63.7615 56.2345ZM64.5535 57.1145L64.4593 57.2292L64.4613 57.2308L64.5535 57.1145ZM65.7503 57.8889L65.68 58.0196L65.6813 58.0203L65.7503 57.8889ZM67.2639 58.5929L67.2073 58.7301L67.2091 58.7308L67.2639 58.5929ZM70.3263 60.089L70.2495 60.2159L70.2502 60.2163L70.3263 60.089ZM72.5791 61.9194L72.4677 62.0173L72.4695 62.0193L72.5791 61.9194ZM73.9519 64.2074L73.8122 64.2572L73.813 64.2595L73.9519 64.2074ZM73.8639 70.0858L74.0004 70.144L74.0006 70.1434L73.8639 70.0858ZM72.2447 72.3386L72.1465 72.2274L72.1456 72.2283L72.2447 72.3386ZM63.0047 73.7642L62.9601 73.9057L62.9615 73.9061L63.0047 73.7642ZM60.1183 72.2154L60.0235 72.3295L60.0242 72.3302L60.1183 72.2154ZM57.3902 65.7034V65.5551H57.2419V65.7034H57.3902ZM62.9871 65.7034H63.1354V65.5551H62.9871V65.7034ZM63.1807 67.657L63.0364 67.6915L63.0374 67.6952L63.1807 67.657ZM63.8143 68.9242L63.7034 69.0228L63.7054 69.025L63.8143 68.9242ZM64.8879 69.6282L64.8375 69.7678L64.8421 69.7693L64.8879 69.6282ZM68.6191 68.5018L68.48 68.4501L68.4792 68.4524L68.6191 68.5018ZM68.8479 67.129H68.9962C68.9962 66.6858 68.9544 66.2866 68.8689 65.9326L68.7247 65.9674L68.5805 66.0022C68.6593 66.3287 68.6996 66.7039 68.6996 67.129H68.8479ZM68.7247 65.9674L68.8692 65.9337C68.7818 65.5593 68.6133 65.2166 68.3653 64.9067L68.2495 64.9994L68.1337 65.092C68.3551 65.3688 68.5033 65.6715 68.5803 66.0011L68.7247 65.9674ZM68.2495 64.9994L68.3671 64.9089C68.1187 64.586 67.7519 64.2702 67.2743 63.9598L67.1935 64.0842L67.1127 64.2085C67.5737 64.5082 67.911 64.8026 68.1319 65.0898L68.2495 64.9994ZM67.1935 64.0842L67.2743 63.9598C66.7955 63.6485 66.1712 63.328 65.4042 62.9975L65.3455 63.1338L65.2868 63.27C66.0451 63.5966 66.6528 63.9097 67.1127 64.2085L67.1935 64.0842ZM65.3455 63.1338L65.4021 62.9966C64.4671 62.611 63.5556 62.1903 62.6676 61.7346L62.5999 61.8666L62.5322 61.9985C63.4276 62.458 64.3465 62.8822 65.2889 63.2709L65.3455 63.1338ZM62.5999 61.8666L62.6697 61.7357C61.7988 61.2712 61.0161 60.7376 60.321 60.1353L60.2239 60.2474L60.1267 60.3594C60.8397 60.9773 61.641 61.5233 62.5301 61.9974L62.5999 61.8666ZM60.2239 60.2474L60.3221 60.1362C59.632 59.5267 59.0804 58.8141 58.6666 57.9979L58.5343 58.0649L58.402 58.132C58.8329 58.9819 59.4077 59.7243 60.1257 60.3585L60.2239 60.2474ZM58.5343 58.0649L58.6669 57.9986C58.2566 57.178 58.049 56.2159 58.049 55.1081H57.9006H57.7523C57.7523 56.2532 57.9671 57.2623 58.4016 58.1313L58.5343 58.0649ZM57.9006 55.1081H58.049C58.049 54.0359 58.2506 53.0721 58.6511 52.214L58.5167 52.1513L58.3822 52.0886C57.9613 52.9905 57.7523 53.9979 57.7523 55.1081H57.9006ZM58.5167 52.1513L58.6514 52.2134C59.0531 51.3411 59.6147 50.602 60.337 49.9944L60.2415 49.8809L60.146 49.7674C59.3898 50.4036 58.8016 51.178 58.3819 52.0893L58.5167 52.1513ZM60.2415 49.8809L60.338 49.9935C61.0611 49.3737 61.9176 48.9018 62.9098 48.5787L62.8639 48.4377L62.818 48.2966C61.792 48.6307 60.9003 49.1209 60.1449 49.7683L60.2415 49.8809ZM62.8639 48.4377L62.9113 48.5782C63.9032 48.2438 64.9957 48.0756 66.1903 48.0756V47.9273V47.779C64.9678 47.779 63.8427 47.9511 62.8165 48.2971L62.8639 48.4377ZM66.1903 47.9273V48.0756C67.8006 48.0756 69.2009 48.4057 70.3958 49.0606L70.4671 48.9305L70.5384 48.8004C69.2928 48.1177 67.8419 47.779 66.1903 47.779V47.9273ZM70.4671 48.9305L70.3968 49.0611C71.5927 49.705 72.5227 50.6122 73.1894 51.7846L73.3183 51.7113L73.4473 51.638C72.7529 50.4168 71.7821 49.4701 70.5374 48.7999L70.4671 48.9305ZM73.3183 51.7113L73.1897 51.7852C73.8554 52.9444 74.1908 54.3027 74.1908 55.8649H74.3391H74.4875C74.4875 54.2592 74.1423 52.8484 73.447 51.6374L73.3183 51.7113ZM74.3391 55.8649V55.7166H68.7775V55.8649V56.0133H74.3391V55.8649ZM68.7775 55.8649H68.9258C68.9258 55.1597 68.8303 54.5376 68.6353 54.0014L68.4959 54.0521L68.3565 54.1028C68.537 54.5992 68.6292 55.1856 68.6292 55.8649H68.7775ZM68.4959 54.0521L68.6357 54.0024C68.4394 53.4503 68.1297 53.0138 67.7038 52.7006L67.6159 52.8201L67.528 52.9396C67.9 53.2131 68.177 53.5979 68.3561 54.1018L68.4959 54.0521ZM67.6159 52.8201L67.7077 52.7036C67.2877 52.3727 66.742 52.2142 66.0847 52.2142V52.3625V52.5108C66.6946 52.5108 67.1697 52.6574 67.5241 52.9366L67.6159 52.8201ZM66.0847 52.3625V52.2142C65.4776 52.2142 64.9611 52.3417 64.5443 52.607L64.6239 52.7321L64.7035 52.8573C65.0611 52.6297 65.5185 52.5108 66.0847 52.5108V52.3625ZM64.6239 52.7321L64.5443 52.607C64.1322 52.8692 63.8254 53.2262 63.6259 53.6751L63.7615 53.7353L63.897 53.7956C64.073 53.3996 64.3411 53.0879 64.7035 52.8573L64.6239 52.7321ZM63.7615 53.7353L63.6259 53.6751C63.4288 54.1185 63.3315 54.6087 63.3315 55.1433H63.4799H63.6282C63.6282 54.6454 63.7187 54.1969 63.897 53.7956L63.7615 53.7353ZM63.4799 55.1433H63.3315C63.3315 55.5775 63.4311 55.9679 63.6339 56.3102L63.7615 56.2345L63.8891 56.1589C63.7164 55.8676 63.6282 55.5305 63.6282 55.1433H63.4799ZM63.7615 56.2345L63.636 56.3136C63.845 56.6455 64.1201 56.9505 64.4593 57.2292L64.5535 57.1145L64.6476 56.9999C64.3298 56.7388 64.0769 56.4571 63.887 56.1555L63.7615 56.2345ZM64.5535 57.1145L64.4613 57.2308C64.8096 57.507 65.2161 57.7698 65.68 58.0195L65.7503 57.8889L65.8206 57.7583C65.3693 57.5153 64.9779 57.2618 64.6457 56.9983L64.5535 57.1145ZM65.7503 57.8889L65.6813 58.0203C66.1551 58.269 66.6638 58.5055 67.2073 58.73L67.2639 58.5929L67.3205 58.4558C66.7846 58.2345 66.2842 58.0017 65.8192 57.7576L65.7503 57.8889ZM67.2639 58.5929L67.2091 58.7308C68.3527 59.1859 69.3659 59.6811 70.2495 60.2159L70.3263 60.089L70.4031 59.9621C69.5032 59.4174 68.4749 58.9152 67.3187 58.4551L67.2639 58.5929ZM70.3263 60.089L70.2502 60.2163C71.1426 60.7494 71.881 61.35 72.4677 62.0173L72.5791 61.9194L72.6905 61.8214C72.0805 61.1276 71.317 60.508 70.4024 59.9616L70.3263 60.089ZM72.5791 61.9194L72.4695 62.0193C73.0663 62.6735 73.5137 63.4191 73.8122 64.2571L73.9519 64.2074L74.0917 64.1576C73.78 63.2826 73.3122 62.5028 72.6887 61.8194L72.5791 61.9194ZM73.9519 64.2074L73.813 64.2595C74.1225 65.0847 74.2788 66.0287 74.2788 67.0938H74.4271H74.5755C74.5755 65.9999 74.415 65.0197 74.0908 64.1553L73.9519 64.2074ZM74.4271 67.0938H74.2788C74.2788 68.1797 74.094 69.1571 73.7272 70.0282L73.8639 70.0858L74.0006 70.1434C74.3848 69.231 74.5755 68.2138 74.5755 67.0938H74.4271ZM73.8639 70.0858L73.7275 70.0276C73.3605 70.8877 72.8337 71.6204 72.1465 72.2274L72.2447 72.3386L72.3429 72.4498C73.0638 71.8131 73.6164 71.0439 74.0004 70.144L73.8639 70.0858ZM72.2447 72.3386L72.1456 72.2283C71.4704 72.8348 70.6443 73.3004 69.6639 73.6233L69.7103 73.7642L69.7567 73.9051C70.7711 73.571 71.6345 73.0862 72.3439 72.449L72.2447 72.3386ZM69.7103 73.7642L69.6639 73.6233C68.6839 73.9462 67.5852 74.1087 66.3663 74.1087V74.257V74.4054C67.6114 74.4054 68.7421 74.2394 69.7567 73.9051L69.7103 73.7642ZM66.3663 74.257V74.1087C65.2189 74.1087 64.1129 73.9465 63.0479 73.6223L63.0047 73.7642L62.9615 73.9061C64.0554 74.2391 65.1905 74.4054 66.3663 74.4054V74.257ZM63.0047 73.7642L63.0493 73.6228C61.9872 73.288 61.0419 72.7805 60.2123 72.1007L60.1183 72.2154L60.0242 72.3302C60.8842 73.0348 61.8632 73.56 62.9601 73.9057L63.0047 73.7642ZM60.1183 72.2154L60.2131 72.1013C59.3987 71.4246 58.7488 70.5574 58.2644 69.4962L58.1295 69.5578L57.9945 69.6194C58.4957 70.7172 59.1716 71.6217 60.0235 72.3295L60.1183 72.2154ZM58.1295 69.5578L58.2644 69.4962C57.7824 68.4403 57.5386 67.1775 57.5386 65.7034H57.3902H57.2419C57.2419 67.2095 57.4909 68.5163 57.9945 69.6194L58.1295 69.5578ZM57.3902 65.7034V65.8517H62.9871V65.7034V65.5551H57.3902V65.7034ZM62.9871 65.7034H62.8387C62.8387 66.4737 62.9039 67.1371 63.0364 67.6915L63.1807 67.657L63.3249 67.6225C63.1994 67.0974 63.1354 66.4584 63.1354 65.7034H62.9871ZM63.1807 67.657L63.0374 67.6952C63.1825 68.2393 63.4026 68.6844 63.7034 69.0227L63.8143 68.9242L63.9251 68.8257C63.6627 68.5304 63.4605 68.1307 63.324 67.6188L63.1807 67.657ZM63.8143 68.9242L63.7054 69.025C64.0155 69.3599 64.3937 69.6075 64.8375 69.7677L64.8879 69.6282L64.9383 69.4887C64.5372 69.3439 64.1997 69.1221 63.9231 68.8234L63.8143 68.9242ZM64.8879 69.6282L64.8421 69.7693C65.2948 69.9161 65.8273 69.9877 66.4367 69.9877V69.8394V69.6911C65.8493 69.6911 65.3492 69.6219 64.9336 69.4871L64.8879 69.6282ZM66.4367 69.8394V69.9877C67.065 69.9877 67.5796 69.8611 67.965 69.5913L67.8799 69.4698L67.7948 69.3483C67.4762 69.5713 67.0287 69.6911 66.4367 69.6911V69.8394ZM67.8799 69.4698L67.965 69.5913C68.3419 69.3275 68.6077 68.9798 68.759 68.5512L68.6191 68.5018L68.4792 68.4524C68.3489 68.8217 68.1219 69.1193 67.7948 69.3483L67.8799 69.4698ZM68.6191 68.5018L68.7582 68.5534C68.9177 68.1239 68.9962 67.6485 68.9962 67.129H68.8479H68.6996C68.6996 67.6185 68.6256 68.0583 68.4801 68.4502L68.6191 68.5018Z" fill="#f4e6d5" mask="url(#path-2-outside-1_36_10)"/>
</svg>
